<svg x="0" y="0" width="1800" height="900" viewBox="0 0 1800 900" xmlns="http://www.w3.org/2000/svg" xmlns:xlink="http://www.w3.org/1999/xlink" xmlns:fi="http://pattern.flaticon.com/"><rect x="0px" y="0px" width="100%" height="100%" opacity="1" fill="#ffffff"/><defs><g transform="matrix(0.17578125 0 0 0.17578125 305 305)" id="L1_28"><path d="m360.399 368.5-104.399 52.5-104.7-52.2c-52.5 18.3-90.3 69.399-90.3 128.2 0 8.401 6.599 15 15 15h180 180c8.401 0 15-6.599 15-15 0-58.801-37.8-109.9-90.601-128.5z" fill="#54e360"/><path d="m451 497c0-58.801-37.8-109.9-90.601-128.5l-104.399 52.5v91h180c8.401 0 15-6.599 15-15z" fill="#00cc71"/><path d="m331 361.901-20.7 30h-54.3-45l-30-30c-10.201 1.199-20.4 3.3-29.7 6.899 1.199 11.7 5.099 23.101 11.4 33.6 18.3 30 54 48.6 93.3 48.6 37.2 0 70.8-16.199 90-43.5 8.401-12.299 13.2-25.199 14.399-39-9.3-3.3-19.198-5.4-29.399-6.599z" fill="#fff5f5"/><path d="m346 407.5c8.401-12.299 13.2-25.199 14.399-39-9.3-3.3-19.199-5.4-29.399-6.599l-20.7 30h-54.3v59.099c37.2 0 70.8-16.199 90-43.5z" fill="#f7f0eb"/><path d="m316 361h-5.7l-4.501-23.101h-49.799-49.799l-4.501 23.101h-5.7c-5.099 0-10.201.3-15 .901.3 10.199 3.6 18.898 7.5 24.899 12.299 20.7 39 34.2 67.5 34.2 27.001 0 52.2-11.7 65.4-30.901 4.801-6.899 9.3-16.199 9.6-28.198-4.799-.601-9.901-.901-15-.901z" fill="#ffbfab"/><path d="m321.4 390.099c4.801-6.899 9.3-16.199 9.6-28.198-4.799-.601-9.901-.901-15-.901h-5.7l-4.501-23.101h-49.799v83.101c27.001 0 52.2-11.7 65.4-30.901z" fill="#ffa78f"/><path d="m406 271h-45v-90h45c24.853 0 45 20.147 45 45 0 24.853-20.147 45-45 45z" fill="#ffa78f"/><path d="m151 271h-45c-24.853 0-45-20.147-45-45 0-24.853 20.147-45 45-45h45z" fill="#ffbfab"/><path d="m391 121v105c0 74.7-60.3 135-135 135s-135-60.3-135-135v-105z" fill="#ffcebf"/><path d="m391 121v105c0 74.7-60.3 135-135 135v-240z" fill="#ffbfab"/><circle cx="195" cy="225" r="15" fill="#596c76"/><circle cx="315" cy="225" r="15" fill="#465a61"/><path d="m301 256c0 24.901-20.099 45-45 45s-45-20.099-45-45c0-8.401 6.599-15 15-15s15 6.599 15 15 6.599 15 15 15 15-6.599 15-15 6.599-15 15-15 15 6.599 15 15z" fill="#ffbfab"/><path d="m301 256c0 24.901-20.099 45-45 45v-30c8.401 0 15-6.599 15-15s6.599-15 15-15 15 6.599 15 15z" fill="#ffa78f"/><path d="m421 166c0 8.401-6.599 15-15 15h-30c-28.5 0-53.699-16.199-66.301-39.901-14.399 15.901-32.999 27.9-53.699 34.201-11.7 3.9-24.3 5.7-37.2 5.7h-112.8c-8.401 0-15-6.599-15-15 0-90.3 73.2-166 165-166s165 75.399 165 166z" fill="#ffda2d"/><path d="m421 166c0 8.401-6.599 15-15 15h-30c-28.5 0-53.699-16.199-66.301-39.901-14.399 15.901-32.999 27.9-53.699 34.201v-175.3c91.8 0 165 75.399 165 166z" fill="#fdbf00"/></g><g transform="matrix(0.09765625 0 0 0.09765625 150 325)" id="L1_29"><path d="m497 0h-482c-8.401 0-15 6.599-15 15v482c0 8.401 6.599 15 15 15h482c8.401 0 15-6.599 15-15v-482c0-8.401-6.599-15-15-15z" fill="#fff5f5"/><path d="m512 15v482c0 8.401-6.599 15-15 15h-241v-512h241c8.401 0 15 6.599 15 15z" fill="#f7f0eb"/><path d="m450.399 130.901c-1.8-5.4-6.599-9.3-12.299-10.201l-43.801-6.299-18.3-39.6c-2.401-5.4-7.5-8.701-13.5-8.701-.3 0-.899 0-1.5.3-4.2.3-9.6 3.6-12.001 8.101l-18.9 39-46.5 7.2c-5.4.901-10.199 4.801-11.999 10.201-1.501 5.4 0 11.4 3.9 15.3l31.8 31.199-7.5 43.801c-.901 5.7 1.5 11.398 5.999 14.7 4.801 3.3 10.801 3.6 15.901 1.199l39.3-20.7 39.3 20.7c5.099 2.401 11.1 2.1 15.901-1.199 4.499-3.301 6.899-9 5.999-14.7l-7.5-43.801 31.8-31.199c4.201-3.901 5.402-9.902 3.9-15.301z" fill="#ffda2d"/><path d="m436 271h-150c-8.401 0-15 6.599-15 15v150c0 8.401 6.599 15 15 15h150c8.401 0 15-6.599 15-15v-150c0-8.401-6.599-15-15-15z" fill="#4bb9ec"/><path d="m151 61c-49.501 0-90 40.499-90 90s40.499 90 90 90 90-40.499 90-90-40.499-90-90-90z" fill="#ff7cb9"/><path d="m227.5 307.599-69-39.899c-2.1-1.5-4.799-2.1-7.5-2.1s-5.4.601-7.5 2.1l-69 39.899c-4.501 2.701-7.5 7.5-7.5 12.902v79.799c0 5.4 2.999 10.201 7.5 12.9l69 39.901c2.401 1.199 4.799 1.8 7.5 1.8s5.099-.601 7.5-1.8l69-39.901c4.501-2.699 7.5-7.5 7.5-12.9v-79.799c0-5.402-2.999-10.201-7.5-12.902z" fill="#54e360"/></g><g transform="matrix(0.05859375 0 0 0.05859375 335 160)" id="L1_30"><path d="m91.002 497c0 8.291 6.709 15 15 15h45l30-51-30-77.147c-36.142 24.249-60 66.446-60 113.147z" fill="#ffbfab"/><path d="m421.002 383.853-30 75.271 30 52.875h45c8.291 0 15-6.709 15-15 0-46.7-23.859-88.897-60-113.146z" fill="#ffa78f"/><path d="m384.701 367.332-54.476 43.414h-44.224-44.224l-54.472-43.416c-12.946 3.909-25.311 9.148-36.304 16.523v128.147h135 135v-128.147c-10.991-7.375-23.356-12.614-36.3-16.521z" fill="#ff7cb9"/><path d="m421.002 383.853c-10.992-7.375-23.357-12.614-36.301-16.522l-54.476 43.414h-44.224v101.255h135v-128.147z" fill="#ff3980"/><path d="m354.899 361.899-19.708 29.101h-49.189-49.189l-19.702-29.101c-10.322.687-20.24 2.545-29.804 5.431l24.472 73.416c2.036 6.123 7.764 10.254 14.224 10.254h60 60c6.46 0 12.188-4.131 14.224-10.254l24.476-73.414c-9.566-2.888-19.483-4.744-29.804-5.433z" fill="#fff5f5"/><path d="m360.225 440.746 24.476-73.414c-9.564-2.888-19.481-4.744-29.802-5.433l-19.708 29.101h-49.189v60h60c6.46 0 12.187-4.131 14.223-10.254z" fill="#f7f0eb"/><path d="m346.002 361h-5.698l-4.629-23.115h-49.673-49.673l-4.629 23.115h-5.698c-3.045 0-5.896.699-8.892.899l19.702 59.101h49.189 49.189l19.708-59.101c-2.997-.2-5.849-.899-8.896-.899z" fill="#ffbfab"/><path d="m354.899 361.899c-2.997-.2-5.85-.899-8.897-.899h-5.698l-4.629-23.115h-49.673v83.115h49.189z" fill="#ffa78f"/><path d="m139.927 154.091c-29.517-8.013-59.707.483-80.728 22.72-21.021 22.251-27.788 52.866-18.105 81.899l7.251 21.782c6.475 19.409 1.509 40.444-12.949 54.902-4.292 4.292-5.581 10.737-3.252 16.348 2.314 5.61 7.793 9.258 13.857 9.258h29.927c58.579 0 106.392-45.85 108.838-104.37z" fill="#fdbf00"/><path d="m436.002 271h-45v-90h45c24.853 0 45 20.147 45 45 0 24.853-20.148 45-45 45z" fill="#ffa78f"/><path d="m181.002 271h-45c-24.853 0-45-20.147-45-45 0-24.853 20.147-45 45-45h45z" fill="#ffbfab"/><path d="m421.002 121v105c0 74.7-60.3 135-135 135s-135-60.3-135-135v-105z" fill="#ffcebf"/><path d="m421.002 121v105c0 74.7-60.3 135-135 135v-240z" fill="#ffbfab"/><circle cx="226" cy="225" r="15" fill="#596c76"/><circle cx="346" cy="225" r="15" fill="#465a61"/><path d="m331.002 256c0 24.901-20.099 45-45 45s-45-20.099-45-45c0-8.401 6.599-15 15-15s15 6.599 15 15 6.599 15 15 15 15-6.599 15-15 6.599-15 15-15 15 6.599 15 15z" fill="#ffbfab"/><path d="m331.002 256c0 24.901-20.099 45-45 45v-30c8.401 0 15-6.599 15-15s6.599-15 15-15 15 6.599 15 15z" fill="#ffa78f"/><path d="m451.002 166c0 8.401-6.599 15-15 15h-52.8c-38.699 0-74.099-17.701-97.2-47.1-23.101 29.399-58.5 47.1-97.2 47.1h-52.8c-8.401 0-15-6.599-15-15 0-91.199 73.801-166 165-166s165 74.801 165 166z" fill="#ffda2d"/><path d="m451.002 166c0 8.401-6.599 15-15 15h-52.8c-38.699 0-74.099-17.701-97.2-47.1v-133.9c91.199 0 165 74.801 165 166z" fill="#fdbf00"/></g><g transform="matrix(0.13671821355819702 0 0 0.13671821355819702 140 140)" id="L1_31"><path d="m71.368 511.546c-8.042-2.007-12.935-10.151-10.913-18.179l30-121c1.992-8.057 10.122-12.935 18.179-10.913 8.042 2.007 12.935 10.151 10.913 18.179l-30 121c-2.018 8.108-10.23 12.924-18.179 10.913z" fill="#465a61"/><path d="m422.455 500.633-30-121c-2.021-8.027 2.871-16.172 10.913-18.179 8.013-2.007 16.172 2.856 18.179 10.913l30 121c2.021 8.027-2.871 16.172-10.913 18.179-7.938 2.008-16.158-2.794-18.179-10.913z" fill="#3b4a51"/><path d="m482.001 15v331h-452v-331c0-8.401 6.599-15 15-15h422c8.401 0 15 6.599 15 15z" fill="#465a61"/><path d="m482.001 15v331h-226v-346h211c8.401 0 15 6.599 15 15z" fill="#3b4a51"/><path d="m60.001 30h392v331h-392z" fill="#54e360"/><path d="m256.001 30h196v331h-196z" fill="#00cc71"/><path d="m407.001 271h-91c-8.291 0-15 6.709-15 15v60c0 8.291 6.709 15 15 15h91c8.291 0 15-6.709 15-15v-60c0-8.291-6.709-15-15-15z" fill="#ffda2d"/><path d="m165.001 150h-15v-45c0-8.291-6.709-15-15-15h-30c-8.291 0-15 6.709-15 15s6.709 15 15 15h15v30h-15c-8.291 0-15 6.709-15 15s6.709 15 15 15h60c8.291 0 15-6.709 15-15s-6.709-15-15-15z" fill="#fff5f5"/><path d="m407.001 150h-15v-45c0-8.291-6.709-15-15-15h-30c-8.291 0-15 6.709-15 15s6.709 15 15 15h15v30h-15c-8.291 0-15 6.709-15 15s6.709 15 15 15h60c8.291 0 15-6.709 15-15s-6.709-15-15-15z" fill="#f7f0eb"/><path d="m301.001 135c0 8.401-6.599 15-15 15h-15v15c0 8.401-6.599 15-15 15s-15-6.599-15-15v-15h-15c-8.401 0-15-6.599-15-15s6.599-15 15-15h15v-15c0-8.401 6.599-15 15-15s15 6.599 15 15v15h15c8.401 0 15 6.599 15 15z" fill="#fff5f5"/><path d="m256.001 180v-90c8.401 0 15 6.599 15 15v15h15c8.401 0 15 6.599 15 15s-6.599 15-15 15h-15v15c0 8.401-6.599 15-15 15z" fill="#f7f0eb"/><path d="m497.001 331h-482c-8.401 0-15 6.599-15 15v30c0 8.401 6.599 15 15 15h482c8.401 0 15-6.599 15-15v-30c0-8.401-6.599-15-15-15z" fill="#596c76"/><path d="m512.001 346v30c0 8.401-6.599 15-15 15h-241v-60h241c8.401 0 15 6.599 15 15z" fill="#465a61"/></g><path d="M165,0C74.019,0,0,74.019,0,165s74.019,165,165,165c90.982,0,165-74.019,165-165S255.982,0,165,0z" transform="matrix(0.03030303120613098 0 0 0.03030303120613098 257.5 257.5)" id="L1_32" fill="#baedfd"/><g transform="matrix(0.12765957415103912 0 0 0.12765957415103912 210 14)" id="L1_33"><path d="M235,15C113.691,15,15,113.691,15,235s98.691,220,220,220s220-98.691,220-220S356.309,15,235,15z    M235,417.556c-100.661,0-182.556-81.895-182.556-182.556S134.339,52.444,235,52.444S417.556,134.339,417.556,235   S335.661,417.556,235,417.556z" fill="#ffcb59"/><path d="M401.17,68.83C356.784,24.444,297.771,0,235,0S113.216,24.444,68.83,68.83S0,172.229,0,235   s24.444,121.784,68.83,166.17S172.229,470,235,470s121.784-24.444,166.17-68.83S470,297.771,470,235S445.556,113.216,401.17,68.83z    M235,455c-121.309,0-220-98.691-220-220S113.691,15,235,15s220,98.691,220,220S356.309,455,235,455z" fill="#3d2a20"/><path d="M227.5,222.009v-53.144c0-4.143,3.357-7.5,7.5-7.5s7.5,3.357,7.5,7.5v53.144l133.672-77.176   C347.629,100.302,298.605,70.105,242.5,67.62v71.245c0,4.143-3.357,7.5-7.5,7.5s-7.5-3.357-7.5-7.5V67.62   c-56.105,2.484-105.129,32.681-133.672,77.213L227.5,222.009z" fill="#fff5de"/><path d="M343.238,306.151c-3.587-2.071-4.816-6.658-2.745-10.245c2.069-3.588,6.659-4.816,10.245-2.745   l32.948,19.023c12.047-23.114,18.87-49.365,18.87-77.184s-6.823-54.07-18.87-77.184L250,235l74.758,43.161   c3.587,2.071,4.816,6.658,2.745,10.245c-1.389,2.406-3.91,3.751-6.502,3.751c-1.272,0-2.562-0.324-3.743-1.006L242.5,247.99v154.39   c56.105-2.484,105.129-32.681,133.672-77.213L343.238,306.151z" fill="#fff5de"/><path d="M227.5,402.38V247.99L93.828,325.166C122.371,369.698,171.395,399.895,227.5,402.38z" fill="#fff5de"/><path d="M220,235L86.314,157.816C74.267,180.93,67.444,207.181,67.444,235s6.823,54.07,18.87,77.184L220,235   z" fill="#fff5de"/><path d="M235,52.444C134.339,52.444,52.444,134.339,52.444,235S134.339,417.556,235,417.556   S417.556,335.661,417.556,235S335.661,52.444,235,52.444z M227.5,67.62v71.245c0,4.143,3.357,7.5,7.5,7.5s7.5-3.357,7.5-7.5V67.62   c56.105,2.484,105.129,32.681,133.672,77.213L242.5,222.01v-53.144c0-4.143-3.357-7.5-7.5-7.5s-7.5,3.357-7.5,7.5v53.144   L93.828,144.834C122.371,100.302,171.395,70.105,227.5,67.62z M86.314,157.816L220,235L86.314,312.184   C74.267,289.07,67.444,262.819,67.444,235S74.267,180.93,86.314,157.816z M227.5,247.99V402.38   c-56.105-2.484-105.129-32.681-133.672-77.213L227.5,247.99z M242.5,402.38V247.99l74.758,43.161   c1.182,0.682,2.471,1.006,3.743,1.006c2.592,0,5.113-1.345,6.502-3.751c2.071-3.587,0.842-8.174-2.745-10.245L250,235   l133.685-77.184c12.047,23.114,18.87,49.366,18.87,77.184s-6.823,54.07-18.87,77.184l-32.948-19.023   c-3.586-2.071-8.176-0.843-10.245,2.745c-2.071,3.587-0.842,8.174,2.745,10.245l32.933,19.015   C347.629,369.698,298.605,399.895,242.5,402.38z" fill="#3d2a20"/></g><g transform="matrix(0.12765957415103912 0 0 0.12765957415103912 311 240)" id="L1_34"><path d="M82.056,375.824c0-4.142,3.357-7.5,7.5-7.5h7.794c1.254,0,2.433,0.312,3.471,0.855l40.797-40.797   C127.678,314.441,120,295.906,120,276.191c0-19.715,7.678-38.25,21.618-52.19L224,141.619C237.941,127.678,256.477,120,276.191,120   c19.715,0,38.25,7.678,52.19,21.618l43.989-43.989c-0.397-0.914-0.62-1.922-0.62-2.983v-7.795c0-4.142,3.357-7.5,7.5-7.5   c3.082,0,5.727,1.86,6.88,4.517l16.497-16.497C368.856,33.599,323.953,15,276.192,15c-47.762,0-92.664,18.599-126.437,52.372   l-82.384,82.383c-69.718,69.718-69.718,183.156,0,252.873l19.725-19.725C84.164,381.884,82.056,379.103,82.056,375.824z    M179.561,145.494c0,4.142-3.357,7.5-7.5,7.5s-7.5-3.358-7.5-7.5v-7.795c0-4.142,3.357-7.5,7.5-7.5s7.5,3.358,7.5,7.5V145.494z    M310.063,51.871c2.93-2.929,7.678-2.929,10.607,0l5.512,5.512c2.929,2.929,2.929,7.678,0,10.606   c-1.465,1.464-3.385,2.197-5.304,2.197s-3.839-0.732-5.304-2.197l-5.512-5.512C307.134,59.549,307.134,54.8,310.063,51.871z    M282.425,78.718h7.795c4.143,0,7.5,3.358,7.5,7.5s-3.357,7.5-7.5,7.5h-7.795c-4.143,0-7.5-3.358-7.5-7.5   S278.282,78.718,282.425,78.718z M219.218,58.008c2.93-2.929,7.678-2.929,10.607,0l5.512,5.512c2.929,2.929,2.929,7.678,0,10.606   c-1.465,1.464-3.385,2.197-5.304,2.197s-3.839-0.732-5.304-2.197l-5.512-5.512C216.289,65.686,216.289,60.937,219.218,58.008z    M175.304,63.251c0-4.142,3.357-7.5,7.5-7.5s7.5,3.358,7.5,7.5v7.794c0,4.142-3.357,7.5-7.5,7.5s-7.5-3.358-7.5-7.5V63.251z    M158.019,112.342l5.512-5.511c2.928-2.929,7.677-2.927,10.606,0c2.929,2.929,2.929,7.678-0.001,10.607l-5.512,5.511   c-1.464,1.464-3.384,2.196-5.303,2.196c-1.92,0-3.839-0.732-5.304-2.197C155.089,120.02,155.089,115.271,158.019,112.342z    M102.178,320.168c0,4.142-3.357,7.5-7.5,7.5s-7.5-3.358-7.5-7.5v-7.794c0-4.142,3.357-7.5,7.5-7.5s7.5,3.358,7.5,7.5V320.168z    M121.12,193.854c-1.465,1.464-3.385,2.197-5.304,2.197s-3.839-0.732-5.304-2.197l-5.512-5.512c-2.929-2.929-2.929-7.678,0-10.606   c2.93-2.929,7.678-2.929,10.607,0l5.512,5.512C124.049,186.177,124.049,190.926,121.12,193.854z M102.546,143.803   c0-4.142,3.357-7.5,7.5-7.5s7.5,3.358,7.5,7.5v7.794c0,4.142-3.357,7.5-7.5,7.5s-7.5-3.358-7.5-7.5V143.803z M100.771,228.75   c2.929,2.929,2.929,7.678,0,10.606l-5.512,5.512c-1.465,1.464-3.385,2.197-5.304,2.197s-3.839-0.732-5.304-2.197   c-2.929-2.929-2.929-7.678,0-10.606l5.512-5.512C93.094,225.821,97.842,225.821,100.771,228.75z M50.698,308.514h-7.795   c-4.143,0-7.5-3.358-7.5-7.5s3.357-7.5,7.5-7.5h7.795c4.143,0,7.5,3.358,7.5,7.5S54.841,308.514,50.698,308.514z M73.705,202.481   c-4.143,0-7.5-3.358-7.5-7.5s3.357-7.5,7.5-7.5h7.794c4.143,0,7.5,3.358,7.5,7.5s-3.357,7.5-7.5,7.5H73.705z" fill="#ec6a65"/><path d="M402.628,320.245c69.718-69.718,69.718-183.156,0-252.873l-16.497,16.497   c0.397,0.915,0.62,1.922,0.62,2.983v7.795c0,4.142-3.357,7.5-7.5,7.5c-3.082,0-5.727-1.86-6.88-4.517l-43.989,43.989   C342.322,155.559,350,174.094,350,193.809c0,19.715-7.678,38.25-21.618,52.19L246,328.381C232.059,342.322,213.523,350,193.809,350   c-19.715,0-38.25-7.678-52.19-21.618l-40.797,40.797c2.393,1.253,4.029,3.756,4.029,6.645c0,4.142-3.357,7.5-7.5,7.5h-7.794   c-0.863,0-1.687-0.153-2.459-0.421l-19.725,19.725C101.144,436.401,146.047,455,193.808,455c47.762,0,92.664-18.599,126.437-52.372   L402.628,320.245z M399.878,289.561l-5.512,5.512c-1.465,1.464-3.385,2.197-5.304,2.197s-3.839-0.732-5.304-2.197   c-2.929-2.929-2.929-7.678,0-10.606l5.512-5.512c2.93-2.929,7.678-2.929,10.607,0C402.807,281.883,402.807,286.632,399.878,289.561   z M426.043,189.645h7.794c4.143,0,7.5,3.358,7.5,7.5s-3.357,7.5-7.5,7.5h-7.794c-4.143,0-7.5-3.358-7.5-7.5   S421.9,189.645,426.043,189.645z M402.785,133.526c0-4.142,3.357-7.5,7.5-7.5s7.5,3.358,7.5,7.5v7.795c0,4.142-3.357,7.5-7.5,7.5   s-7.5-3.358-7.5-7.5V133.526z M396.876,228.22c0-4.142,3.357-7.5,7.5-7.5s7.5,3.358,7.5,7.5v7.795c0,4.142-3.357,7.5-7.5,7.5   s-7.5-3.358-7.5-7.5V228.22z M376.968,127.208l5.512-5.511c2.929-2.929,7.678-2.927,10.606,0c2.929,2.929,2.929,7.678-0.001,10.607   l-5.512,5.511c-1.464,1.464-3.384,2.196-5.303,2.196c-1.92,0-3.839-0.732-5.304-2.197   C374.038,134.886,374.038,130.138,376.968,127.208z M368.197,184.97c2.93-2.929,7.678-2.929,10.607,0l5.512,5.512   c2.929,2.929,2.929,7.678,0,10.606c-1.465,1.464-3.385,2.197-5.304,2.197s-3.839-0.732-5.304-2.197l-5.512-5.512   C365.269,192.648,365.269,187.899,368.197,184.97z M354.264,266.111c2.93-2.929,7.678-2.929,10.607,0l5.512,5.512   c2.929,2.929,2.929,7.678,0,10.606c-1.465,1.464-3.385,2.197-5.304,2.197s-3.839-0.732-5.304-2.197l-5.512-5.512   C351.335,273.789,351.335,269.04,354.264,266.111z M331.094,284.593h7.795c4.143,0,7.5,3.358,7.5,7.5s-3.357,7.5-7.5,7.5h-7.795   c-4.143,0-7.5-3.358-7.5-7.5S326.951,284.593,331.094,284.593z M136.641,369.893l-5.512,5.511   c-1.464,1.464-3.384,2.196-5.303,2.196c-1.92,0-3.839-0.732-5.304-2.197c-2.929-2.929-2.929-7.678,0.001-10.607l5.512-5.511   c2.929-2.928,7.678-2.928,10.606,0C139.57,362.215,139.57,366.964,136.641,369.893z M185.386,427.751h-7.795   c-4.143,0-7.5-3.358-7.5-7.5s3.357-7.5,7.5-7.5h7.795c4.143,0,7.5,3.358,7.5,7.5S189.528,427.751,185.386,427.751z    M231.384,386.475c-1.465,1.464-3.385,2.197-5.304,2.197s-3.839-0.732-5.304-2.197l-5.512-5.512c-2.929-2.929-2.929-7.678,0-10.606   c2.93-2.929,7.678-2.929,10.607,0l5.512,5.512C234.313,378.797,234.313,383.546,231.384,386.475z M292.694,359.917l-5.511,5.511   c-1.465,1.464-3.385,2.197-5.304,2.197s-3.839-0.732-5.303-2.196c-2.93-2.929-2.93-7.678-0.001-10.607l5.511-5.511   c2.93-2.929,7.679-2.929,10.606,0C295.623,352.24,295.623,356.988,292.694,359.917z M318.693,371.536c0,4.142-3.357,7.5-7.5,7.5   s-7.5-3.358-7.5-7.5v-7.794c0-4.142,3.357-7.5,7.5-7.5s7.5,3.358,7.5,7.5V371.536z" fill="#ffcb59"/><path d="M413.235,56.765C376.63,20.16,327.96,0,276.192,0c-51.769,0-100.438,20.16-137.044,56.765   l-82.384,82.383c-75.565,75.566-75.565,198.521,0,274.086C93.37,449.84,142.04,470,193.808,470   c51.769,0,100.438-20.16,137.044-56.765l82.384-82.383C488.801,255.286,488.801,132.331,413.235,56.765z M67.372,402.628   c-69.718-69.718-69.718-183.156,0-252.874l82.384-82.383C183.528,33.599,228.431,15,276.192,15   c47.761,0,92.664,18.599,126.436,52.372c69.718,69.718,69.718,183.156,0,252.874l-82.384,82.383   C286.472,436.401,241.569,455,193.808,455C146.047,455,101.144,436.401,67.372,402.628z" fill="#3d2a20"/><path d="M224,141.619l-82.382,82.382c-13.94,13.94-21.618,32.475-21.618,52.19   c0,19.715,7.678,38.25,21.618,52.19C155.559,342.322,174.094,350,193.809,350c19.715,0,38.25-7.678,52.191-21.618l82.382-82.382   c13.94-13.94,21.618-32.475,21.618-52.19c0-19.715-7.678-38.25-21.618-52.19C314.441,127.678,295.906,120,276.191,120   C256.477,120,237.941,127.678,224,141.619z M152.226,317.775C141.117,306.667,135,291.899,135,276.191   c0-15.708,6.117-30.476,17.226-41.583l82.382-82.382C245.715,141.118,260.482,135,276.191,135c15.708,0,30.477,6.117,41.583,17.225   C328.883,163.333,335,178.101,335,193.809c0,15.708-6.117,30.476-17.226,41.583l-82.382,82.382   C224.285,328.882,209.518,335,193.809,335C178.101,335,163.332,328.882,152.226,317.775z" fill="#3d2a20"/><path d="M315.574,67.989c1.465,1.464,3.385,2.197,5.304,2.197s3.839-0.732,5.304-2.197   c2.929-2.929,2.929-7.678,0-10.606l-5.512-5.512c-2.93-2.929-7.678-2.929-10.607,0c-2.929,2.929-2.929,7.678,0,10.606   L315.574,67.989z" fill="#ffffff"/><path d="M379.251,79.352c-4.143,0-7.5,3.358-7.5,7.5v7.795c0,1.061,0.223,2.068,0.62,2.983   c1.154,2.657,3.798,4.517,6.88,4.517c4.143,0,7.5-3.358,7.5-7.5v-7.795c0-1.061-0.223-2.068-0.62-2.983   C384.978,81.212,382.333,79.352,379.251,79.352z" fill="#ffffff"/><path d="M282.425,93.718h7.795c4.143,0,7.5-3.358,7.5-7.5s-3.357-7.5-7.5-7.5h-7.795   c-4.143,0-7.5,3.358-7.5,7.5S278.282,93.718,282.425,93.718z" fill="#ffffff"/><path d="M105.001,177.736c-2.929,2.929-2.929,7.678,0,10.606l5.512,5.512   c1.465,1.464,3.385,2.197,5.304,2.197s3.839-0.732,5.304-2.197c2.929-2.929,2.929-7.678,0-10.606l-5.512-5.512   C112.679,174.808,107.931,174.808,105.001,177.736z" fill="#ffffff"/><path d="M172.061,130.199c-4.143,0-7.5,3.358-7.5,7.5v7.795c0,4.142,3.357,7.5,7.5,7.5s7.5-3.358,7.5-7.5   v-7.795C179.561,133.557,176.203,130.199,172.061,130.199z" fill="#ffffff"/><path d="M126.035,359.286l-5.512,5.511c-2.93,2.929-2.93,7.678-0.001,10.607   c1.465,1.464,3.384,2.197,5.304,2.197c1.919,0,3.839-0.732,5.303-2.196l5.512-5.511c2.93-2.929,2.93-7.678,0.001-10.607   C133.713,356.358,128.964,356.357,126.035,359.286z" fill="#ffffff"/><path d="M89.556,368.324c-4.143,0-7.5,3.358-7.5,7.5c0,3.28,2.108,6.06,5.041,7.079   c0.771,0.268,1.596,0.421,2.459,0.421h7.794c4.143,0,7.5-3.358,7.5-7.5c0-2.889-1.635-5.392-4.029-6.645   c-1.039-0.544-2.218-0.855-3.471-0.855H89.556z" fill="#ffffff"/><path d="M404.376,243.515c4.143,0,7.5-3.358,7.5-7.5v-7.795c0-4.142-3.357-7.5-7.5-7.5s-7.5,3.358-7.5,7.5   v7.795C396.876,240.157,400.233,243.515,404.376,243.515z" fill="#ffffff"/><path d="M331.094,299.593h7.795c4.143,0,7.5-3.358,7.5-7.5s-3.357-7.5-7.5-7.5h-7.795   c-4.143,0-7.5,3.358-7.5,7.5S326.951,299.593,331.094,299.593z" fill="#ffffff"/><path d="M389.271,278.955l-5.512,5.512c-2.929,2.929-2.929,7.678,0,10.606   c1.465,1.464,3.385,2.197,5.304,2.197s3.839-0.732,5.304-2.197l5.512-5.512c2.929-2.929,2.929-7.678,0-10.606   C396.948,276.026,392.2,276.026,389.271,278.955z" fill="#ffffff"/><path d="M359.775,282.229c1.465,1.464,3.385,2.197,5.304,2.197s3.839-0.732,5.304-2.197   c2.929-2.929,2.929-7.678,0-10.606l-5.512-5.512c-2.93-2.929-7.678-2.929-10.607,0c-2.929,2.929-2.929,7.678,0,10.606   L359.775,282.229z" fill="#ffffff"/><path d="M311.193,356.241c-4.143,0-7.5,3.358-7.5,7.5v7.794c0,4.142,3.357,7.5,7.5,7.5s7.5-3.358,7.5-7.5   v-7.794C318.693,359.599,315.336,356.241,311.193,356.241z" fill="#ffffff"/><path d="M185.386,412.751h-7.795c-4.143,0-7.5,3.358-7.5,7.5s3.357,7.5,7.5,7.5h7.795   c4.143,0,7.5-3.358,7.5-7.5S189.528,412.751,185.386,412.751z" fill="#ffffff"/><path d="M282.087,349.311l-5.511,5.511c-2.929,2.929-2.929,7.678,0.001,10.607   c1.464,1.464,3.384,2.196,5.303,2.196s3.839-0.732,5.304-2.197l5.511-5.511c2.929-2.929,2.929-7.678-0.001-10.607   C289.766,346.382,285.017,346.382,282.087,349.311z" fill="#ffffff"/><path d="M225.872,370.357c-2.93-2.929-7.678-2.929-10.607,0c-2.929,2.929-2.929,7.678,0,10.606l5.512,5.512   c1.465,1.464,3.385,2.197,5.304,2.197s3.839-0.732,5.304-2.197c2.929-2.929,2.929-7.678,0-10.606L225.872,370.357z" fill="#ffffff"/><path d="M94.678,304.874c-4.143,0-7.5,3.358-7.5,7.5v7.794c0,4.142,3.357,7.5,7.5,7.5s7.5-3.358,7.5-7.5   v-7.794C102.178,308.231,98.82,304.874,94.678,304.874z" fill="#ffffff"/><path d="M50.698,293.514h-7.795c-4.143,0-7.5,3.358-7.5,7.5s3.357,7.5,7.5,7.5h7.795   c4.143,0,7.5-3.358,7.5-7.5S54.841,293.514,50.698,293.514z" fill="#ffffff"/><path d="M84.652,244.868c1.465,1.464,3.385,2.197,5.304,2.197s3.839-0.732,5.304-2.197l5.512-5.512   c2.929-2.929,2.929-7.678,0-10.606c-2.93-2.929-7.678-2.929-10.607,0l-5.512,5.512C81.724,237.19,81.724,241.939,84.652,244.868z" fill="#ffffff"/><path d="M224.729,74.126c1.465,1.464,3.385,2.197,5.304,2.197s3.839-0.732,5.304-2.197   c2.929-2.929,2.929-7.678,0-10.606l-5.512-5.512c-2.93-2.929-7.678-2.929-10.607,0c-2.929,2.929-2.929,7.678,0,10.606   L224.729,74.126z" fill="#ffffff"/><path d="M182.804,78.545c4.143,0,7.5-3.358,7.5-7.5v-7.794c0-4.142-3.357-7.5-7.5-7.5s-7.5,3.358-7.5,7.5   v7.794C175.304,75.188,178.661,78.545,182.804,78.545z" fill="#ffffff"/><path d="M110.046,159.097c4.143,0,7.5-3.358,7.5-7.5v-7.794c0-4.142-3.357-7.5-7.5-7.5s-7.5,3.358-7.5,7.5   v7.794C102.546,155.739,105.903,159.097,110.046,159.097z" fill="#ffffff"/><path d="M163.321,125.146c1.919,0,3.839-0.732,5.303-2.196l5.512-5.511c2.93-2.929,2.93-7.678,0.001-10.607   c-2.93-2.928-7.679-2.929-10.606,0l-5.512,5.511c-2.93,2.929-2.93,7.678-0.001,10.607   C159.482,124.413,161.401,125.146,163.321,125.146z" fill="#ffffff"/><path d="M88.999,194.981c0-4.142-3.357-7.5-7.5-7.5h-7.794c-4.143,0-7.5,3.358-7.5,7.5s3.357,7.5,7.5,7.5   h7.794C85.642,202.481,88.999,199.124,88.999,194.981z" fill="#ffffff"/><path d="M410.285,148.821c4.143,0,7.5-3.358,7.5-7.5v-7.795c0-4.142-3.357-7.5-7.5-7.5s-7.5,3.358-7.5,7.5   v7.795C402.785,145.463,406.143,148.821,410.285,148.821z" fill="#ffffff"/><path d="M426.043,204.645h7.794c4.143,0,7.5-3.358,7.5-7.5s-3.357-7.5-7.5-7.5h-7.794   c-4.143,0-7.5,3.358-7.5,7.5S421.9,204.645,426.043,204.645z" fill="#ffffff"/><path d="M382.271,140.012c1.919,0,3.839-0.732,5.303-2.196l5.512-5.511c2.93-2.929,2.93-7.678,0.001-10.607   c-2.929-2.928-7.678-2.929-10.606,0l-5.512,5.511c-2.93,2.929-2.93,7.678-0.001,10.607   C378.432,139.28,380.351,140.012,382.271,140.012z" fill="#ffffff"/><path d="M373.709,201.088c1.465,1.464,3.385,2.197,5.304,2.197s3.839-0.732,5.304-2.197   c2.929-2.929,2.929-7.678,0-10.606l-5.512-5.512c-2.93-2.929-7.678-2.929-10.607,0c-2.929,2.929-2.929,7.678,0,10.606   L373.709,201.088z" fill="#ffffff"/></g><g transform="matrix(0.1276625692844391 0 0 0.1276625692844391 290 100)" id="L1_35"><path d="M149.353,325.087l-7.72-7.72L16.6,442.4c-1.032,1.031-1.6,2.402-1.6,3.86   c0,1.458,0.567,2.83,1.599,3.86c1.032,1.032,2.402,1.6,3.861,1.6c1.458,0,2.828-0.568,3.859-1.599L149.353,325.087z" fill="#e0dcd7"/><path d="M198.733,342.461c4.875,0,9.544-1.334,13.596-3.821c-0.674-0.273-1.344-0.562-2.008-0.872   l-50.731-23.656l20.715,20.716C185.228,339.75,191.772,342.461,198.733,342.461z" fill="#ffcb59"/><path d="M241.825,278.681l-68.71-32.326c-0.003-0.001-18.322-8.544-18.322-8.544   c-3.485-1.625-7.185-2.45-10.992-2.45c-10.098,0-19.378,5.91-23.642,15.055c-2.942,6.31-3.252,13.387-0.871,19.928   s7.167,11.765,13.477,14.707l83.897,39.122c3.485,1.625,7.184,2.45,10.992,2.45c10.097,0,19.377-5.91,23.643-15.056   C256.799,299.768,252.72,285.703,241.825,278.681z M181.037,275.073c-1.274,2.724-3.977,4.323-6.798,4.323   c-1.064,0-2.146-0.228-3.174-0.709l-29.003-13.571c-3.752-1.755-5.37-6.22-3.614-9.972c1.755-3.751,6.217-5.37,9.972-3.614   l29.003,13.571C181.175,266.857,182.793,271.321,181.037,275.073z" fill="#ffeabd"/><path d="M177.423,265.102L148.42,251.53c-3.755-1.755-8.217-0.137-9.972,3.614   c-1.756,3.752-0.138,8.216,3.614,9.972l29.003,13.571c1.028,0.481,2.109,0.709,3.174,0.709c2.821,0,5.523-1.6,6.798-4.323   C182.793,271.321,181.175,266.857,177.423,265.102z" fill="#ffffff"/><path d="M292.135,228.366l-68.706-32.324c-0.003-0.001-18.322-8.544-18.322-8.544   c-3.485-1.625-7.185-2.45-10.992-2.45c-10.098,0-19.378,5.91-23.642,15.055c-5.503,11.799-1.424,25.865,9.471,32.887l68.71,32.326   c0.003,0.001,18.322,8.544,18.322,8.544c3.485,1.625,7.184,2.45,10.992,2.45c10.097,0,19.377-5.91,23.643-15.056   C307.113,249.454,303.033,235.388,292.135,228.366z M231.353,224.755c-1.274,2.725-3.978,4.325-6.799,4.325   c-1.064,0-2.145-0.228-3.172-0.708l-29.022-13.571c-3.752-1.754-5.372-6.219-3.617-9.971c1.755-3.752,6.221-5.371,9.971-3.617   l29.022,13.571C231.487,216.539,233.107,221.003,231.353,224.755z" fill="#e7453f"/><path d="M227.735,214.785l-29.022-13.571c-3.75-1.753-8.216-0.135-9.971,3.617   c-1.755,3.752-0.135,8.216,3.617,9.971l29.022,13.571c1.027,0.48,2.107,0.708,3.172,0.708c2.821,0,5.524-1.601,6.799-4.325   C233.107,221.003,231.487,216.539,227.735,214.785z" fill="#ffffff"/><path d="M342.398,178.018l-68.656-32.29c-0.003-0.001-18.322-8.544-18.322-8.544   c-3.486-1.625-7.185-2.45-10.992-2.45c-10.098,0-19.378,5.91-23.643,15.055c-5.502,11.799-1.423,25.864,9.473,32.888l68.709,32.326   c0.003,0.001,18.322,8.544,18.322,8.544c3.485,1.625,7.184,2.45,10.992,2.45c10.097,0,19.377-5.91,23.643-15.056   C357.435,199.122,353.334,185.029,342.398,178.018z M281.662,174.447c-1.274,2.724-3.977,4.324-6.798,4.324   c-1.064,0-2.146-0.228-3.174-0.708l-29.018-13.576c-3.751-1.755-5.37-6.22-3.614-9.972c1.755-3.751,6.217-5.371,9.972-3.615   l29.018,13.576C281.799,166.231,283.418,170.695,281.662,174.447z" fill="#03e6ff"/><path d="M278.048,164.475l-29.018-13.576c-3.755-1.756-8.217-0.136-9.972,3.615   c-1.756,3.752-0.137,8.216,3.614,9.972l29.018,13.576c1.028,0.481,2.109,0.708,3.174,0.708c2.821,0,5.523-1.6,6.798-4.324   C283.418,170.695,281.799,166.231,278.048,164.475z" fill="#ffffff"/><path d="M392.711,127.705l-68.656-32.291c-0.003-0.001-18.321-8.543-18.321-8.543   c-3.485-1.625-7.185-2.45-10.992-2.45c-10.098,0-19.378,5.91-23.642,15.055c-5.503,11.799-1.424,25.864,9.471,32.887l71.207,33.49   l15.825,7.379c3.485,1.625,7.184,2.45,10.992,2.45c10.098,0,19.377-5.91,23.643-15.056   C407.749,148.808,403.647,134.715,392.711,127.705z M331.942,124.172c-1.276,2.719-3.977,4.314-6.794,4.314   c-1.068,0-2.152-0.229-3.183-0.713l-28.972-13.602c-3.749-1.76-5.362-6.227-3.602-9.977c1.761-3.749,6.23-5.36,9.977-3.602   l28.972,13.602C332.09,115.956,333.703,120.423,331.942,124.172z" fill="#a3e175"/><path d="M328.341,114.196l-28.972-13.602c-3.746-1.759-8.216-0.147-9.977,3.602   c-1.761,3.75-0.147,8.216,3.602,9.977l28.972,13.602c1.03,0.484,2.114,0.713,3.183,0.713c2.817,0,5.518-1.596,6.794-4.314   C333.703,120.423,332.09,115.956,328.341,114.196z" fill="#ffffff"/><path d="M439.944,75.679l-83.897-39.122c-3.486-1.626-7.185-2.45-10.992-2.45   c-10.098,0-19.378,5.91-23.642,15.056c-5.502,11.799-1.424,25.864,9.471,32.887l71.207,33.491l15.825,7.379   c3.485,1.625,7.184,2.45,10.992,2.45c10.097,0,19.377-5.91,23.643-15.056C458.623,97.289,452.968,81.753,439.944,75.679z    M382.324,73.78c-1.272,2.729-3.978,4.333-6.803,4.333c-1.062,0-2.139-0.227-3.164-0.705L343.296,63.86   c-3.754-1.75-5.379-6.212-3.629-9.966c1.751-3.754,6.213-5.378,9.967-3.628l29.062,13.549   C382.449,65.564,384.074,70.026,382.324,73.78z" fill="#ffcb59"/><path d="M378.695,63.814l-29.062-13.549c-3.754-1.75-8.216-0.126-9.967,3.628   c-1.75,3.754-0.125,8.216,3.629,9.966l29.062,13.549c1.025,0.478,2.103,0.705,3.164,0.705c2.825,0,5.53-1.604,6.803-4.333   C384.074,70.026,382.449,65.564,378.695,63.814z" fill="#ffffff"/><path d="M362.387,22.962l50.732,23.657l-20.716-20.717c-4.922-4.922-11.467-7.633-18.428-7.633   c-4.875,0-9.544,1.334-13.596,3.821C361.053,22.363,361.723,22.653,362.387,22.962z" fill="#ffeabd"/><path d="M458.053,70.351c-0.031-0.032-0.057-0.066-0.088-0.098l-54.954-54.957   C395.255,7.541,384.943,3.27,373.976,3.27c-10.969,0-21.28,4.271-29.036,12.027c-1.252,1.252-2.414,2.592-3.492,3.988   c-14.474,1.288-27.423,10.229-33.629,23.538c-4.221,9.05-4.863,18.95-2.431,28.004c-3.458-0.936-7.02-1.407-10.646-1.407   c-15.901,0-30.52,9.31-37.236,23.716c-4.221,9.051-4.864,18.95-2.431,28.004c-3.458-0.936-7.02-1.407-10.646-1.407   c-15.903,0-30.519,9.309-37.236,23.716c-4.221,9.05-4.863,18.95-2.431,28.004c-3.458-0.936-7.02-1.407-10.646-1.407   c-15.902,0-30.519,9.309-37.236,23.716c-4.221,9.051-4.864,18.95-2.431,28.004c-3.458-0.936-7.02-1.407-10.646-1.407   c-15.902,0-30.519,9.309-37.236,23.716c-4.636,9.94-5.123,21.091-1.371,31.398c2.166,5.952,5.603,11.205,10.029,15.479   l15.804,15.805L5.993,431.793C2.128,435.657,0,440.795,0,446.26c0,5.465,2.128,10.604,5.992,14.467   c3.864,3.864,9.002,5.993,14.468,5.993c5.465,0,10.603-2.128,14.467-5.993l125.032-125.033l9.739,9.74   c7.756,7.756,18.067,12.027,29.035,12.027s21.279-4.271,29.036-12.027c1.253-1.253,2.413-2.592,3.491-3.989   c14.473-1.288,27.424-10.229,33.63-23.539c4.221-9.05,4.864-18.95,2.431-28.004c3.458,0.936,7.019,1.407,10.646,1.407   c15.901,0,30.519-9.309,37.236-23.716c4.221-9.051,4.863-18.95,2.431-28.004c3.458,0.936,7.019,1.407,10.646,1.407   c15.901,0,30.519-9.309,37.236-23.716c4.221-9.051,4.864-18.95,2.431-28.004c3.458,0.935,7.019,1.407,10.646,1.407   c15.902,0,30.52-9.31,37.237-23.717c4.221-9.05,4.864-18.95,2.431-28.004c3.458,0.936,7.019,1.407,10.646,1.407   c15.901,0,30.519-9.309,37.237-23.717C473.611,100.64,469.825,82.219,458.053,70.351z M428.908,125.369   c-3.809,0-7.507-0.824-10.992-2.45l-15.825-7.379L330.884,82.05c-10.895-7.023-14.973-21.088-9.471-32.887   c4.264-9.146,13.544-15.056,23.642-15.056c3.808,0,7.506,0.825,10.992,2.45l83.897,39.122c13.023,6.073,18.679,21.61,12.606,34.634   C448.285,119.46,439.005,125.369,428.908,125.369z M378.597,175.683c-3.811,0-7.509-0.824-10.994-2.45l-15.825-7.379l-71.207-33.49   c-10.895-7.023-14.974-21.088-9.471-32.887c4.264-9.146,13.544-15.055,23.642-15.055c3.808,0,7.507,0.824,10.992,2.45l18.318,8.542   c0.003,0.001,68.659,32.292,68.659,32.292c10.937,7.011,15.038,21.104,9.526,32.922   C397.972,169.773,388.692,175.683,378.597,175.683z M328.281,225.996c-3.809,0-7.507-0.824-10.992-2.45l-18.319-8.542   c-0.003-0.001-68.712-32.327-68.712-32.327c-10.896-7.024-14.975-21.089-9.473-32.888c4.265-9.146,13.545-15.055,23.643-15.055   c3.808,0,7.506,0.824,10.992,2.45l18.319,8.542c0.002,0.001,68.658,32.292,68.658,32.292c10.937,7.011,15.037,21.104,9.526,32.922   C347.658,220.087,338.378,225.996,328.281,225.996z M277.968,276.31c-3.809,0-7.507-0.824-10.992-2.45l-18.319-8.542   c-0.003-0.001-68.712-32.327-68.712-32.327c-10.896-7.023-14.974-21.088-9.471-32.887c4.264-9.146,13.544-15.055,23.642-15.055   c3.808,0,7.507,0.824,10.992,2.45l18.319,8.542c0.003,0.001,68.709,32.326,68.709,32.326c10.898,7.023,14.978,21.089,9.476,32.888   C297.345,270.4,288.064,276.31,277.968,276.31z M251.297,311.567c-4.266,9.146-13.546,15.056-23.643,15.056   c-3.809,0-7.507-0.824-10.992-2.45l-83.897-39.122c-6.31-2.942-11.096-8.165-13.477-14.707s-2.071-13.619,0.871-19.928   c4.264-9.146,13.544-15.055,23.642-15.055c3.808,0,7.507,0.824,10.992,2.45l18.319,8.542c0.002,0.001,68.712,32.327,68.712,32.327   C252.72,285.703,256.799,299.768,251.297,311.567z M16.599,450.12c-1.031-1.031-1.599-2.402-1.599-3.86   c0-1.458,0.567-2.829,1.6-3.86l125.033-125.033l7.72,7.72L24.319,450.121c-1.031,1.031-2.401,1.599-3.859,1.599   C19.001,451.72,17.631,451.152,16.599,450.12z M159.591,314.112l50.731,23.656c0.664,0.31,1.334,0.599,2.008,0.872   c-4.053,2.487-8.721,3.821-13.596,3.821c-6.961,0-13.506-2.711-18.428-7.633L159.591,314.112z M392.403,25.902l20.716,20.717   l-50.732-23.657c-0.664-0.31-1.334-0.599-2.008-0.872c4.052-2.487,8.721-3.821,13.596-3.821   C380.937,18.27,387.481,20.98,392.403,25.902z" fill="#3d2a20"/></g></defs><g fi:class="KUsePattern"><pattern id="pattern_L1_28" width="350" height="350" patternUnits="userSpaceOnUse"><use xlink:href="#L1_28" x="-350" y="-350"/><use xlink:href="#L1_28" x="0" y="-350"/><use xlink:href="#L1_28" x="350" y="-350"/><use xlink:href="#L1_28" x="-350" y="0"/><use xlink:href="#L1_28" x="0" y="0"/><use xlink:href="#L1_28" x="350" y="0"/><use xlink:href="#L1_28" x="-350" y="350"/><use xlink:href="#L1_28" x="0" y="350"/><use xlink:href="#L1_28" x="350" y="350"/></pattern><rect x="0" y="0" width="100%" height="100%" fill="url(#pattern_L1_28)"/></g><g fi:class="KUsePattern"><pattern id="pattern_L1_29" width="350" height="350" patternUnits="userSpaceOnUse"><use xlink:href="#L1_29" x="-350" y="-350"/><use xlink:href="#L1_29" x="0" y="-350"/><use xlink:href="#L1_29" x="350" y="-350"/><use xlink:href="#L1_29" x="-350" y="0"/><use xlink:href="#L1_29" x="0" y="0"/><use xlink:href="#L1_29" x="350" y="0"/><use xlink:href="#L1_29" x="-350" y="350"/><use xlink:href="#L1_29" x="0" y="350"/><use xlink:href="#L1_29" x="350" y="350"/></pattern><rect x="0" y="0" width="100%" height="100%" fill="url(#pattern_L1_29)"/></g><g fi:class="KUsePattern"><pattern id="pattern_L1_30" width="350" height="350" patternUnits="userSpaceOnUse"><use xlink:href="#L1_30" x="-350" y="-350"/><use xlink:href="#L1_30" x="0" y="-350"/><use xlink:href="#L1_30" x="350" y="-350"/><use xlink:href="#L1_30" x="-350" y="0"/><use xlink:href="#L1_30" x="0" y="0"/><use xlink:href="#L1_30" x="350" y="0"/><use xlink:href="#L1_30" x="-350" y="350"/><use xlink:href="#L1_30" x="0" y="350"/><use xlink:href="#L1_30" x="350" y="350"/></pattern><rect x="0" y="0" width="100%" height="100%" fill="url(#pattern_L1_30)"/></g><g fi:class="KUsePattern"><pattern id="pattern_L1_31" width="350" height="350" patternUnits="userSpaceOnUse"><use xlink:href="#L1_31" x="-350" y="-350"/><use xlink:href="#L1_31" x="0" y="-350"/><use xlink:href="#L1_31" x="350" y="-350"/><use xlink:href="#L1_31" x="-350" y="0"/><use xlink:href="#L1_31" x="0" y="0"/><use xlink:href="#L1_31" x="350" y="0"/><use xlink:href="#L1_31" x="-350" y="350"/><use xlink:href="#L1_31" x="0" y="350"/><use xlink:href="#L1_31" x="350" y="350"/></pattern><rect x="0" y="0" width="100%" height="100%" fill="url(#pattern_L1_31)"/></g><g fi:class="KUsePattern"><pattern id="pattern_L1_32" width="350" height="350" patternUnits="userSpaceOnUse"><use xlink:href="#L1_32" x="-350" y="-350"/><use xlink:href="#L1_32" x="0" y="-350"/><use xlink:href="#L1_32" x="350" y="-350"/><use xlink:href="#L1_32" x="-350" y="0"/><use xlink:href="#L1_32" x="0" y="0"/><use xlink:href="#L1_32" x="350" y="0"/><use xlink:href="#L1_32" x="-350" y="350"/><use xlink:href="#L1_32" x="0" y="350"/><use xlink:href="#L1_32" x="350" y="350"/></pattern><rect x="0" y="0" width="100%" height="100%" fill="url(#pattern_L1_32)"/></g><g fi:class="KUsePattern"><pattern id="pattern_L1_33" width="350" height="350" patternUnits="userSpaceOnUse"><use xlink:href="#L1_33" x="-350" y="-350"/><use xlink:href="#L1_33" x="0" y="-350"/><use xlink:href="#L1_33" x="350" y="-350"/><use xlink:href="#L1_33" x="-350" y="0"/><use xlink:href="#L1_33" x="0" y="0"/><use xlink:href="#L1_33" x="350" y="0"/><use xlink:href="#L1_33" x="-350" y="350"/><use xlink:href="#L1_33" x="0" y="350"/><use xlink:href="#L1_33" x="350" y="350"/></pattern><rect x="0" y="0" width="100%" height="100%" fill="url(#pattern_L1_33)"/></g><g fi:class="KUsePattern"><pattern id="pattern_L1_34" width="350" height="350" patternUnits="userSpaceOnUse"><use xlink:href="#L1_34" x="-350" y="-350"/><use xlink:href="#L1_34" x="0" y="-350"/><use xlink:href="#L1_34" x="350" y="-350"/><use xlink:href="#L1_34" x="-350" y="0"/><use xlink:href="#L1_34" x="0" y="0"/><use xlink:href="#L1_34" x="350" y="0"/><use xlink:href="#L1_34" x="-350" y="350"/><use xlink:href="#L1_34" x="0" y="350"/><use xlink:href="#L1_34" x="350" y="350"/></pattern><rect x="0" y="0" width="100%" height="100%" fill="url(#pattern_L1_34)"/></g><g fi:class="KUsePattern"><pattern id="pattern_L1_35" width="350" height="350" patternUnits="userSpaceOnUse"><use xlink:href="#L1_35" x="-350" y="-350"/><use xlink:href="#L1_35" x="0" y="-350"/><use xlink:href="#L1_35" x="350" y="-350"/><use xlink:href="#L1_35" x="-350" y="0"/><use xlink:href="#L1_35" x="0" y="0"/><use xlink:href="#L1_35" x="350" y="0"/><use xlink:href="#L1_35" x="-350" y="350"/><use xlink:href="#L1_35" x="0" y="350"/><use xlink:href="#L1_35" x="350" y="350"/></pattern><rect x="0" y="0" width="100%" height="100%" fill="url(#pattern_L1_35)"/></g></svg>