<svg x="0" y="0" width="1800" height="900" viewBox="0 0 1260 630" xmlns="http://www.w3.org/2000/svg" xmlns:xlink="http://www.w3.org/1999/xlink" xmlns:fi="http://pattern.flaticon.com/"><rect x="0px" y="0px" width="100%" height="100%" opacity="0.82" fill="#6eff37"/><defs><path d="M165,0C74.019,0,0,74.019,0,165s74.019,165,165,165c90.982,0,165-74.019,165-165S255.982,0,165,0z" transform="matrix(0.03030303120613098 0 0 0.03030303120613098 257.5 257.5)" id="L1_32" fill="#baedfd"/><g transform="matrix(0.1171875 0 0 0.1171875 253.99998474121094 168)" id="L1_36"><path d="m122.996 504.5h-26.232c-3.623 0-6.56-2.937-6.56-6.56v-51.685h39.352v51.685c0 3.623-2.937 6.56-6.56 6.56z" fill="#e9e0c3"/><path d="m195.146 504.5h-26.232c-3.623 0-6.56-2.937-6.56-6.56v-51.685h39.352v51.685c0 3.623-2.937 6.56-6.56 6.56z" fill="#e9e0c3"/><path d="m384.558 451.317v-5.062h39.352v51.685c0 3.623-2.937 6.56-6.56 6.56h-26.232c-3.623 0-6.56-2.937-6.56-6.56z" fill="#e9e0c3"/><path d="m328.804 446.255h-244.194c-6.082 0-10.741-5.409-9.84-11.424l32.744-418.855c.73-4.872 4.914-8.476 9.84-8.476h180.078c5.207 0 9.533 4.014 9.922 9.206l31.372 418.855c.432 5.773-4.134 10.694-9.922 10.694z" fill="#ae6834"/><path d="m427.392 446.255h-276.514c-5.207 0-9.533-4.014-9.922-9.206l-31.372-418.856c-.432-5.772 4.134-10.693 9.922-10.693h276.514c5.207 0 9.533 4.014 9.922 9.206l31.372 418.855c.432 5.773-4.135 10.694-9.922 10.694z" fill="#d88a55"/><path d="m175.188 410.106-27.447-366.457h223.968l27.448 366.457z" fill="#f2f5fb"/><path d="m437.313 435.562-31.372-418.856c-.389-5.192-4.715-9.206-9.922-9.206h-30c5.207 0 9.533 4.014 9.922 9.206l31.372 418.855c.432 5.772-4.134 10.693-9.922 10.693h30c5.788.001 10.355-4.92 9.922-10.692z" fill="#ae6834"/><path d="m371.709 43.649h-30l27.448 366.457h30z" fill="#e6e8f0"/><g><path d="m444.793 435.002-31.373-418.856c-.678-9.054-8.321-16.146-17.4-16.146h-191.748c-4.142 0-7.5 3.358-7.5 7.5s3.358 7.5 7.5 7.5h191.748c1.274 0 2.348.996 2.443 2.267l31.372 418.855c.069.928-.376 1.557-.647 1.85-.271.292-.866.784-1.795.784h-276.515c-1.275 0-2.348-.996-2.443-2.267l-31.371-418.856c-.069-.928.376-1.557.647-1.85s.866-.783 1.795-.783h54.766c4.142 0 7.5-3.358 7.5-7.5s-3.358-7.5-7.5-7.5c0 0-56.602 0-56.919 0-8.568 0-15.987 6.39-17.257 14.864-.026.175-.046.351-.06.527l-32.726 418.628c-.652 4.93.826 9.899 4.078 13.674 2.9 3.367 6.947 5.478 11.315 5.956v44.29c0 7.753 6.308 14.06 14.061 14.06h26.231c7.753 0 14.06-6.307 14.06-14.06v-44.185h17.798v44.185c0 7.753 6.307 14.06 14.06 14.06h26.231c7.753 0 14.061-6.307 14.061-14.06v-44.185h167.852v44.185c0 7.753 6.308 14.06 14.06 14.06h26.232c7.753 0 14.061-6.307 14.061-14.06v-44.675c3.334-.794 6.409-2.544 8.772-5.09 3.292-3.546 4.972-8.347 4.611-13.172zm-362.606.94c.026-.174 26.139-334.132 26.139-334.132l25.151 335.798c.029.388.088.767.142 1.147h-49.01c-.977 0-1.582-.533-1.856-.851-.273-.318-.711-.995-.566-1.962zm39.869 61.058h-24.352v-43.245h24.352zm72.15 0h-24.352v-43.245h24.352zm197.852 0v-43.245h24.353v43.245z"/><path d="m323.413 417.606h75.744c2.086 0 4.079-.869 5.498-2.399 1.419-1.529 2.137-3.581 1.981-5.662l-27.448-366.456c-.293-3.914-3.554-6.94-7.479-6.94h-223.968c-2.086 0-4.079.869-5.498 2.399-1.419 1.529-2.137 3.581-1.981 5.662l27.448 366.457c.293 3.914 3.554 6.94 7.479 6.94h118.225c4.142 0 7.5-3.358 7.5-7.5s-3.358-7.5-7.5-7.5h-111.266l-26.324-351.458h208.926l26.324 351.457h-67.661c-4.142 0-7.5 3.358-7.5 7.5s3.358 7.5 7.5 7.5z"/><path d="m332.693 107.73h-74.16c-4.142 0-7.5-3.358-7.5-7.5s3.358-7.5 7.5-7.5h74.16c4.142 0 7.5 3.358 7.5 7.5s-3.358 7.5-7.5 7.5z"/><path d="m220.392 107.73h-26.38c-4.142 0-7.5-3.358-7.5-7.5s3.358-7.5 7.5-7.5h26.38c4.142 0 7.5 3.358 7.5 7.5s-3.358 7.5-7.5 7.5z"/><path d="m335.693 148.885h-72.829c-4.142 0-7.5-3.358-7.5-7.5s3.358-7.5 7.5-7.5h72.829c4.142 0 7.5 3.358 7.5 7.5s-3.358 7.5-7.5 7.5z"/><path d="m223.392 148.885h-26.38c-4.142 0-7.5-3.358-7.5-7.5s3.358-7.5 7.5-7.5h26.38c4.142 0 7.5 3.358 7.5 7.5s-3.358 7.5-7.5 7.5z"/><path d="m340.693 190.039h-74.829c-4.142 0-7.5-3.358-7.5-7.5s3.358-7.5 7.5-7.5h74.829c4.142 0 7.5 3.358 7.5 7.5s-3.358 7.5-7.5 7.5z"/><path d="m228.618 190.039h-26.607c-4.142 0-7.5-3.358-7.5-7.5s3.358-7.5 7.5-7.5h26.607c4.142 0 7.5 3.358 7.5 7.5s-3.358 7.5-7.5 7.5z"/><path d="m342.693 231.193h-72.066c-4.142 0-7.5-3.358-7.5-7.5s3.358-7.5 7.5-7.5h72.066c4.142 0 7.5 3.358 7.5 7.5s-3.358 7.5-7.5 7.5z"/><path d="m300.132 268.347h46.561c4.142 0 7.5-3.358 7.5-7.5s-3.358-7.5-7.5-7.5h-46.561c-4.142 0-7.5 3.358-7.5 7.5 0 4.143 3.358 7.5 7.5 7.5z"/><path d="m232.244 231.193h-28.233c-4.142 0-7.5-3.358-7.5-7.5s3.358-7.5 7.5-7.5h28.233c4.142 0 7.5 3.358 7.5 7.5s-3.358 7.5-7.5 7.5z"/><path d="m259.605 308.86c-1.788-.486-3.614-.997-5.441-1.531l-2.201-29.621c.839.181 1.616.399 2.321.633 3.044 1.013 6.391.061 8.37-2.464 3.159-4.03 1.473-10.03-3.366-11.706-2.417-.837-5.268-1.537-8.468-1.844l-.423-5.694c-.307-4.13-3.887-7.228-8.035-6.924-4.131.307-7.23 3.904-6.924 8.035l.464 6.241c-.777.247-1.56.513-2.356.818-9.574 3.677-16.268 12.592-17.469 23.266-1.099 9.76 2.694 18.825 9.898 23.659 3.631 2.436 8.046 4.587 13.974 6.747l2.846 38.309c-4.733-.11-8.035-1.183-13.57-4.243-3.891-2.152-8.864-.48-10.591 3.77-1.443 3.548.195 7.634 3.552 9.478 8.503 4.671 14.329 6.005 21.402 6.005.105 0 .216-.004.322-.005l.474 6.38c.293 3.942 3.581 6.944 7.472 6.944.186 0 .375-.007.563-.021 4.131-.307 7.231-3.904 6.924-8.035l-.524-7.055c14.068-4.299 22.36-17.028 23.474-29.057 1.424-15.354-7.482-27.948-22.688-32.085zm-25.272-9.588c-2.498-1.676-3.812-5.414-3.35-9.525.391-3.474 2.206-7.692 6.088-10.034l1.635 22.01c-1.611-.777-3.091-1.591-4.373-2.451zm33.025 40.289c-.514 5.549-3.734 11.617-9.702 14.775l-2.31-31.09c.109.03.211.059.321.089 11.942 3.248 11.967 13.24 11.691 16.226z"/></g></g><g transform="matrix(0.11718612909317017 0 0 0.11718612909317017 314 68)" id="L1_37"><path d="m275.748 7.827c-2.002-1.001-4.357.455-4.357 2.692v301.909h31.515l2.632-20.19c1.48-11.35 11.149-19.841 22.595-19.841h9.962c1.695 0 3.068-1.374 3.068-3.068v-94.336c0-61.966-23.358-121.656-65.415-167.166z" fill="#e7e7e7"/><path d="m440.325 312.429v-52.718c0-42.432-15.994-83.304-44.793-114.466-1.371-.685-2.983.311-2.983 1.844v165.34z" fill="#e7e7e7"/><path d="m75.926 31.713c-2.345 0-4.245 1.901-4.245 4.245v276.47h117.284c4.995 0 9.044-4.049 9.044-9.044v-149.59c-.001-67.423-54.659-122.081-122.083-122.081z" fill="#e7e7e7"/><path d="m275.748 7.827c-2.002-1.001-4.357.455-4.357 2.692v30.294c25.789 39.695 39.772 86.254 39.772 134.181v105.013c4.196-4.687 10.271-7.609 16.969-7.609h9.963c1.694 0 3.068-1.374 3.068-3.068v-94.336c0-61.967-23.358-121.657-65.415-167.167z" fill="#d8d8d8"/><path d="m395.533 145.245c-1.371-.685-2.983.311-2.983 1.844v31.551c13.52 24.662 20.776 52.511 20.776 81.071v52.718h27v-52.718c-.001-42.431-15.995-83.304-44.793-114.466z" fill="#d8d8d8"/><path d="m75.926 31.713c-1.831 0-3.377 1.166-3.973 2.79 54.918 11.927 96.055 60.801 96.055 119.292v149.59c0 4.995-4.049 9.044-9.044 9.044h30c4.995 0 9.044-4.049 9.044-9.044v-149.59c0-67.424-54.658-122.082-122.082-122.082z" fill="#d8d8d8"/><path d="m307.611 312.429h-36.22v169.253c0 12.605 10.218 22.824 22.824 22.824h2.129c12.605 0 22.824-10.219 22.824-22.824v-157.697c-.001-6.382-5.175-11.556-11.557-11.556z" fill="#fe787e"/><path d="m440.325 312.429h-47.776v169.253c0 12.605 10.218 22.824 22.823 22.824h2.129c12.605 0 22.824-10.219 22.824-22.824z" fill="#fe787e"/><path d="m119.457 312.429h-47.776v169.253c0 12.605 10.219 22.824 22.824 22.824h2.129c12.605 0 22.824-10.219 22.824-22.824v-169.253z" fill="#fe787e"/><path d="m307.611 312.429h-23c6.382 0 11.555 5.174 11.555 11.556v157.697c0 8.844-5.033 16.507-12.388 20.296 3.128 1.612 6.674 2.528 10.435 2.528h2.129c12.605 0 22.824-10.219 22.824-22.824v-157.697c.001-6.382-5.173-11.556-11.555-11.556z" fill="#fb5c6f"/><path d="m417.325 312.429v169.253c0 8.844-5.033 16.507-12.388 20.296 3.128 1.612 6.674 2.528 10.436 2.528h2.129c12.605 0 22.823-10.219 22.823-22.824v-169.253z" fill="#fb5c6f"/><path d="m96.457 312.429v169.253c0 8.844-5.033 16.507-12.388 20.296 3.128 1.612 6.674 2.528 10.436 2.528h2.129c12.605 0 22.824-10.219 22.824-22.824v-169.253z" fill="#fb5c6f"/><g><circle cx="95" cy="471" r="7"/><circle cx="295" cy="471" r="7"/><circle cx="416" cy="471" r="7"/><path d="m279.102 1.12c-3.28-1.641-7.103-1.47-10.227.459-3.121 1.929-4.985 5.271-4.985 8.941v471.162c0 16.721 13.603 30.324 30.323 30.324h2.129c16.721 0 30.324-13.603 30.324-30.324v-157.697c0-9.211-6.569-16.914-15.269-18.675l1.577-12.101c.988-7.588 7.505-13.31 15.157-13.31h9.962c5.827 0 10.568-4.741 10.568-10.568v-94.336c0-64.046-23.939-125.222-67.407-172.257-.613-.666-1.342-1.213-2.152-1.618zm32.565 480.562c0 8.45-6.874 15.324-15.324 15.324h-2.129c-8.449 0-15.323-6.874-15.323-15.324v-161.753h24.016 4.705c2.236 0 4.056 1.819 4.056 4.056v157.697zm21.996-216.784h-5.53c-15.161 0-28.072 11.337-30.032 26.372l-1.78 13.659h-17.43v-282.124c35.415 42.776 54.773 96.32 54.773 152.189v89.904z"/><path d="m401.04 140.155c-.613-.664-1.343-1.212-2.151-1.617-2.985-1.494-6.463-1.339-9.303.417-2.841 1.754-4.536 4.795-4.536 8.134v87.746c0 4.142 3.357 7.5 7.5 7.5s7.5-3.358 7.5-7.5v-72.549c21.231 27.934 32.775 61.989 32.775 97.425v45.218h-32.775v-40.094c0-4.142-3.357-7.5-7.5-7.5s-7.5 3.358-7.5 7.5v216.847c0 16.721 13.603 30.324 30.323 30.324h2.129c16.721 0 30.323-13.603 30.323-30.324v-221.971c0-44.452-16.615-86.911-46.785-119.556zm31.785 341.527c0 8.45-6.874 15.324-15.323 15.324h-2.129c-8.449 0-15.323-6.874-15.323-15.324v-161.753h32.775z"/><path d="m75.927 24.214c-6.477 0-11.746 5.269-11.746 11.745v177.729c0 4.142 3.357 7.5 7.5 7.5s7.5-3.358 7.5-7.5v-174.429c61.684 1.728 111.328 52.443 111.328 114.536v149.59c0 .851-.692 1.543-1.544 1.543h-77.339v-183.194c0-4.142-3.357-7.5-7.5-7.5s-7.5 3.358-7.5 7.5v183.195h-17.446v-61.242c0-4.142-3.357-7.5-7.5-7.5s-7.5 3.358-7.5 7.5v237.995c0 16.721 13.604 30.324 30.324 30.324h2.129c16.721 0 30.323-13.603 30.323-30.324v-161.753h62.008c9.122 0 16.544-7.421 16.544-16.543v-149.59c.001-71.453-58.129-129.582-129.581-129.582zm36.03 457.468c0 8.45-6.874 15.324-15.323 15.324h-2.129c-8.45 0-15.324-6.874-15.324-15.324v-161.753h32.776z"/></g></g><g transform="matrix(0.1171875 0 0 0.1171875 158 238.99998474121094)" id="L1_38"><path d="m445.972 392.09h-382.238v-33.067c0-4.086 3.312-7.399 7.399-7.399h367.441c4.086 0 7.399 3.312 7.399 7.399v33.067z" fill="#c9c9c9"/><path d="m436.001 317.616h-362.297c-5.507 0-9.971-4.464-9.971-9.971v-5.714c0-105.552 85.567-191.119 191.119-191.119 105.552 0 191.119 85.567 191.119 191.119v5.714c.001 5.507-4.463 9.971-9.97 9.971z" fill="#c9c9c9"/><path d="m99.247 317.616h313.507v34.008h-313.507z" fill="#5d656e"/><path d="m501.633 429.296h-491.266c-1.583 0-2.867-1.284-2.867-2.867v-31.471c0-1.583 1.284-2.867 2.867-2.867h491.266c1.583 0 2.867 1.284 2.867 2.867v31.471c0 1.583-1.283 2.867-2.867 2.867z" fill="#e59a69"/><path d="m438.573 351.625h-30c4.086 0 7.398 3.312 7.398 7.399v33.067h30v-33.067c.001-4.087-3.312-7.399-7.398-7.399z" fill="#b8b8b8"/><path d="m254.853 110.813c-5.049 0-10.05.199-15 .583 98.541 7.651 176.119 90.032 176.119 190.535v5.714c0 5.507-4.464 9.971-9.971 9.971h30c5.507 0 9.971-4.464 9.971-9.971v-5.714c0-105.551-85.567-191.118-191.119-191.118z" fill="#b8b8b8"/><path d="m382.754 317.616h30v34.008h-30z" fill="#474d54"/><path d="m501.633 392.09h-30c1.583 0 2.867 1.284 2.867 2.867v31.471c0 1.583-1.284 2.867-2.867 2.867h30c1.583 0 2.867-1.283 2.867-2.867v-31.471c0-1.583-1.283-2.867-2.867-2.867z" fill="#d78c57"/><path d="m501.633 384.59h-48.161v-25.567c0-8.215-6.684-14.898-14.898-14.898h-18.319v-19.008h15.747c9.634 0 17.471-7.837 17.471-17.471v-5.714c0-107.006-85.064-194.504-191.119-198.463v-13.265h16.845c4.143 0 7.5-3.358 7.5-7.5s-3.357-7.5-7.5-7.5h-46.394c-4.143 0-7.5 3.358-7.5 7.5s3.357 7.5 7.5 7.5h14.549v13.267c-30.498 1.155-60.49 9.32-87.179 23.818-3.64 1.977-4.987 6.531-3.011 10.171 1.977 3.639 6.528 4.989 10.171 3.01 26.684-14.496 56.946-22.157 87.518-22.157 101.248 0 183.619 82.371 183.619 183.619v5.714c0 1.362-1.108 2.471-2.471 2.471h-362.297c-1.362 0-2.471-1.108-2.471-2.471v-5.714c0-29.123 6.616-56.969 19.664-82.764 12.448-24.609 30.648-46.489 52.634-63.274 3.292-2.513 3.923-7.22 1.409-10.512-2.513-3.292-7.219-3.924-10.513-1.41-23.771 18.149-43.452 41.811-56.915 68.425-14.12 27.914-21.279 58.038-21.279 89.535v5.714c0 9.633 7.837 17.471 17.471 17.471h18.043v19.008h-20.615c-8.215 0-14.898 6.684-14.898 14.898v25.567h-45.867c-5.717 0-10.367 4.651-10.367 10.367v31.471c0 5.716 4.65 10.367 10.367 10.367h317.059c4.143 0 7.5-3.358 7.5-7.5s-3.357-7.5-7.5-7.5h-312.426v-22.205h482v22.206h-139.574c-4.143 0-7.5 3.358-7.5 7.5s3.357 7.5 7.5 7.5h144.207c5.717 0 10.367-4.651 10.367-10.367v-31.471c0-5.717-4.65-10.368-10.367-10.368zm-394.886-59.474h298.507v19.008h-298.507zm331.725 59.474h-367.239v-25.465h341.521 25.718z"/></g><g transform="matrix(0.11718864738941193 0 0 0.11718864738941193 116 4.999997615814209)" id="L1_41"><path d="m235.79 24.887-201.285 95.291h438.704l-201.29-95.291c-11.435-5.414-24.694-5.414-36.129 0z" fill="#d8d8d8"/><path d="m244.727 24.887-101.712 95.292h221.683l-101.714-95.292c-5.778-5.414-12.478-5.414-18.257 0z" fill="#c9c9c9"/><path d="m262.984 24.887c-5.778-5.413-12.479-5.413-18.257 0l-5.872 5.501 95.842 89.791h30z" fill="#b8b8b8"/><path d="m478.236 154.227h-448.758c-4.568 0-8.271-3.703-8.271-8.271v-17.507c0-4.568 3.703-8.271 8.271-8.271h448.758c4.568 0 8.271 3.703 8.271 8.271v17.507c0 4.568-3.703 8.271-8.271 8.271z" fill="#f9eed7"/><path d="m112.012 385.098h-54.665c-1.773 0-3.265-1.329-3.469-3.09l-14.294-123.127c-.942-8.117-7.817-14.24-15.988-14.24-9.625 0-17.098 8.391-15.988 17.952l17.984 154.912h32.408 54.013c8.949 0 16.204-7.255 16.204-16.204-.002-8.949-7.256-16.203-16.205-16.203z" fill="#5d656e"/><path d="m399.983 385.098h54.665c1.773 0 3.265-1.329 3.469-3.09l14.294-123.126c.942-8.117 7.817-14.24 15.988-14.24 9.625 0 17.098 8.391 15.988 17.952l-17.984 154.912h-32.408-54.013c-8.949 0-16.204-7.255-16.204-16.204.001-8.95 7.256-16.204 16.205-16.204z" fill="#5d656e"/><path d="m402.82 331.261h-293.645c-5.232 0-9.473-4.241-9.473-9.473v-16.371c0-5.232 4.241-9.473 9.473-9.473h293.645c5.232 0 9.473 4.241 9.473 9.473v16.371c0 5.232-4.241 9.473-9.473 9.473z" fill="#d78c57"/><path d="m478.236 120.178h-30c4.568 0 8.271 3.703 8.271 8.271v17.507c0 4.568-3.703 8.271-8.271 8.271h30c4.568 0 8.271-3.703 8.271-8.271v-17.507c0-4.568-3.703-8.271-8.271-8.271z" fill="#e9e0c3"/><path d="m402.82 295.944h-30c5.232 0 9.473 4.241 9.473 9.473v16.371c0 5.232-4.241 9.473-9.473 9.473h30c5.232 0 9.473-4.241 9.473-9.473v-16.371c0-5.231-4.241-9.473-9.473-9.473z" fill="#c87a43"/><g><path d="m316.796 392.51c6.126-4.251 9.783-11.242 9.783-18.698v-35.05h76.241c9.359 0 16.973-7.614 16.973-16.973v-16.371c0-9.359-7.614-16.973-16.973-16.973h-53.741c-4.142 0-7.5 3.358-7.5 7.5s3.358 7.5 7.5 7.5h53.741c1.088 0 1.973.885 1.973 1.973v16.371c0 1.088-.885 1.973-1.973 1.973h-293.646c-1.088 0-1.973-.885-1.973-1.973v-16.371c0-1.088.885-1.973 1.973-1.973h209.905c4.142 0 7.5-3.358 7.5-7.5s-3.358-7.5-7.5-7.5h-57.723v-126.718h216.879c8.696 0 15.771-7.075 15.771-15.771v-17.507c0-8.696-7.075-15.771-15.771-15.771h-3.341l-199.766-94.57c-13.52-6.4-29.028-6.4-42.547 0l-199.762 94.57h-3.342c-8.696 0-15.771 7.075-15.771 15.771v17.507c0 8.696 7.075 15.771 15.771 15.771h52.86c4.142 0 7.5-3.358 7.5-7.5s-3.358-7.5-7.5-7.5h-52.86c-.425 0-.771-.346-.771-.771v-17.507c0-.425.346-.771.771-.771h5.027 438.704 5.027c.425 0 .771.346.771.771v17.507c0 .425-.346.771-.771.771h-365.898c-4.142 0-7.5 3.358-7.5 7.5s3.358 7.5 7.5 7.5h134.02v126.717h-137.183c-9.359 0-16.973 7.614-16.973 16.973v16.371c0 9.359 7.614 16.973 16.973 16.973h72.595v35.05c0 7.456 3.657 14.446 9.783 18.698l24.251 16.831v26.369l-17.71 5.221c-9.611 2.834-16.324 11.812-16.324 21.832v27.814c0 4.142 3.358 7.5 7.5 7.5s7.5-3.358 7.5-7.5v-27.814c0-3.417 2.289-6.478 5.566-7.444 0 0 23.393-7.066 24.194-7.608h19.828v42.866c0 4.142 3.358 7.5 7.5 7.5s7.5-3.358 7.5-7.5v-42.866h20.463c.801.542 24.193 7.608 24.193 7.608 3.277.966 5.566 4.027 5.566 7.444v27.814c0 4.142 3.358 7.5 7.5 7.5s7.5-3.358 7.5-7.5v-27.814c0-10.02-6.713-18.998-16.325-21.832l-17.71-5.221v-26.369zm-103.019-348.904-73.726 69.072h-72.176zm-51.787 69.072 87.865-82.318c2.88-2.698 5.123-2.696 8.001 0l87.866 82.318zm205.672 0-73.726-69.07 145.901 69.07zm-56.083 261.134c0 2.542-1.247 4.926-3.336 6.375l-26.551 18.428c-.19.132-.363.283-.542.427h-19.794v-60.281h50.223zm-111.474 6.375c-2.089-1.45-3.336-3.833-3.336-6.375v-35.05h49.587v60.281h-19.158c-.179-.144-.351-.295-.542-.427zm30.699 52.524v-18.669h15.553v18.669zm30.553-18.669h16.188v18.669h-16.188z"/><path d="m135.715 401.302c0-13.07-10.633-23.704-23.704-23.704h-51.095l-13.883-119.582c-1.381-11.9-11.458-20.875-23.438-20.875-6.725 0-13.147 2.88-17.62 7.902s-6.594 11.734-5.818 18.414l17.863 153.878-11.733 72.655c-.661 4.089 2.119 7.939 6.208 8.6.405.065.808.097 1.205.097 3.615 0 6.8-2.621 7.395-6.305l10.882-67.376h75.419l10.882 67.376c.595 3.684 3.779 6.305 7.395 6.305.397 0 .8-.032 1.205-.097 4.089-.66 6.869-4.511 6.208-8.6l-10.87-67.297c7.977-3.821 13.499-11.973 13.499-21.391zm-118.539-146.281c1.653-1.856 3.933-2.879 6.419-2.879 4.364 0 8.035 3.269 8.538 7.604l14.294 123.125c.643 5.545 5.337 9.727 10.919 9.727h54.665c4.799 0 8.704 3.904 8.704 8.704 0 4.799-3.904 8.704-8.704 8.704h-79.741l-17.213-148.277c-.287-2.469.466-4.852 2.119-6.708z"/><path d="m506.02 245.045c-4.473-5.022-10.896-7.903-17.621-7.903-11.98 0-22.057 8.974-23.439 20.875l-13.882 119.581h-51.096c-13.07 0-23.704 10.633-23.704 23.704 0 9.418 5.522 17.57 13.498 21.391l-10.87 67.297c-.66 4.089 2.119 7.939 6.208 8.6.405.065.808.097 1.205.097 3.615 0 6.8-2.621 7.395-6.305l10.882-67.376h75.42l10.881 67.376c.595 3.684 3.779 6.305 7.395 6.305.397 0 .8-.032 1.205-.097 4.089-.66 6.869-4.511 6.208-8.6l-11.734-72.655 17.864-153.876c.778-6.68-1.342-13.392-5.815-18.414zm-9.083 16.684-17.213 148.277h-79.741c-4.799 0-8.704-3.905-8.704-8.704s3.904-8.704 8.704-8.704h54.665c5.581 0 10.275-4.181 10.919-9.725l14.294-123.126c.503-4.335 4.174-7.604 8.538-7.604 2.486 0 4.766 1.022 6.419 2.879 1.654 1.855 2.407 4.237 2.119 6.707z"/></g></g><g transform="matrix(0.11683289706707001 0 0 0.11683289706707001 256 289)" id="L1_42"><path d="m478.883 400.694h-444.212c-19.148 0-34.671-15.522-34.671-34.671v-6.826c0-19.148 15.523-34.671 34.671-34.671h444.213c19.148 0 34.671 15.523 34.671 34.671v6.826c-.001 19.149-15.523 34.671-34.672 34.671z" fill="#e94444"/><path d="m513.552 359.193v6.828c0 19.152-15.516 34.678-34.668 34.678h-20.288c19.152 0 34.668-15.526 34.668-34.678v-6.828c0-19.142-15.516-34.668-34.668-34.668h20.288c19.152 0 34.668 15.527 34.668 34.668z" fill="#d83131"/><path d="m478.883 400.694h-222.106-222.106s-15.319 73.971 71.855 103.071c14.933 4.985 30.523 7.306 46.157 7.306h104.095 104.095c15.634 0 31.224-2.321 46.157-7.306 87.172-29.1 71.853-103.071 71.853-103.071z" fill="#fe9738"/><path d="m407.028 503.763c-14.937 4.99-30.525 7.314-46.155 7.314h-23.532c15.64 0 31.228-2.324 46.165-7.314 87.165-29.1 71.846-103.063 71.846-103.063h23.532c0-.001 15.32 73.963-71.856 103.063z" fill="#fe860a"/><path d="m479.696 338.336c0 17.31-20.114 26.694-33.487 15.703-5.497-4.518-11.989-8.098-22.278-8.098-27.878 0-27.878 22.083-55.757 22.083s-27.879-22.083-55.758-22.083c-27.878 0-27.878 22.083-55.756 22.083-27.877 0-27.877-22.083-55.755-22.083-27.879 0-27.879 22.083-55.758 22.083-27.878 0-27.878-22.083-55.756-22.083-10.284 0-16.774 3.578-22.27 8.094-13.374 10.991-33.488 1.609-33.488-15.702v-40.967h446.061v40.97z" fill="#bbec6c"/><path d="m479.7 297.368v40.969c0 16.198-17.613 25.453-30.825 17.571 5.836-3.409 10.03-9.659 10.03-17.571v-40.969z" fill="#a2e62e"/><path d="m33.858 264.541v33.13h47.82c9.948 0 18.013 8.065 18.013 18.013v95.416c0 12.719 10.311 23.03 23.03 23.03 12.719 0 23.029-10.311 23.029-23.03v-95.416c0-9.948 8.065-18.013 18.013-18.013h315.934v-33.13z" fill="#fee45a"/><path d="m458.906 264.539h20.795v33.129h-20.795z" fill="#fedf30"/><path d="m478.883 266.809h-444.212c-19.148 0-34.671-15.522-34.671-34.671v-6.826c0-19.148 15.523-34.671 34.671-34.671h444.213c19.148 0 34.671 15.523 34.671 34.671v6.826c-.001 19.149-15.523 34.671-34.672 34.671z" fill="#9e5528"/><path d="m513.552 225.31v6.828c0 19.152-15.516 34.668-34.668 34.668h-20.288c19.152 0 34.668-15.516 34.668-34.668v-6.828c0-19.142-15.516-34.668-34.668-34.668h20.288c19.152.001 34.668 15.527 34.668 34.668z" fill="#904d24"/><path d="m256.777 2.483c-173.165 2.506-231.346 96.439-250.553 151.018-6.582 18.702 7.451 38.274 27.277 38.274h223.276 223.274c19.973 0 33.825-19.769 27.164-38.599-19.323-54.626-77.616-148.192-250.438-150.693z" fill="#fe9738"/><path d="m480.052 191.777h-2.469c6.725-7.5 9.493-18.419 5.744-29.038-19.328-54.636-77.62-148.195-250.442-150.695-44.709.64-81.763 7.386-112.443 17.974 34.792-15.981 79.335-26.714 136.336-27.54 172.822 2.51 231.115 96.07 250.442 150.695 6.652 18.832-7.201 38.604-27.168 38.604z" fill="#fe860a"/><g><path d="m185.299 81.89c-1.204 0-2.425-.291-3.559-.903-3.644-1.969-5.001-6.52-3.032-10.164l6.721-12.436c1.969-3.644 6.52-5.001 10.164-3.032s5.001 6.52 3.032 10.164l-6.721 12.436c-1.356 2.51-3.938 3.935-6.605 3.935z" fill="#e57917"/><path d="m256.684 82.739c-4.142 0-7.5-3.358-7.5-7.5v-14.136c0-4.142 3.358-7.5 7.5-7.5s7.5 3.358 7.5 7.5v14.136c0 4.142-3.358 7.5-7.5 7.5z" fill="#e57917"/><path d="m328.255 81.786c-2.587 0-5.104-1.34-6.495-3.739l-7.092-12.229c-2.078-3.583-.858-8.172 2.725-10.25s8.172-.858 10.25 2.725l7.092 12.229c2.078 3.583.858 8.172-2.725 10.25-1.184.688-2.477 1.014-3.755 1.014z" fill="#e57917"/></g></g><g transform="matrix(0.1171872690320015 0 0 0.1171872690320015 91 158)" id="L1_43"><path d="M509.026,2.885c-2.732-2.696-6.771-3.596-10.384-2.302L83.289,148.68c-14.43-8.824-32.733-10.89-49.52-3.939    C5.904,156.284-7.377,188.345,4.165,216.212c27.219,65.708,66.518,124.525,116.809,174.816s109.107,89.591,174.816,116.809    c6.824,2.826,13.897,4.164,20.861,4.164c21.475-0.001,41.894-12.726,50.609-33.769c5.864-14.158,5.31-29.396-0.299-42.48    L511.462,13.238C512.704,9.606,511.758,5.582,509.026,2.885z M146.179,147.489l44.02-15.694    c5.168,5.506,7.687,13.086,6.678,20.752c-0.89,6.75-4.354,12.751-9.755,16.896c-5.401,4.145-12.089,5.936-18.844,5.049    c-6.749-0.889-12.749-4.352-16.894-9.754C147.565,159.761,145.748,153.689,146.179,147.489z M348.782,470.577    c-7.322,17.678-27.664,26.103-45.338,18.779c-128.04-53.035-227.763-152.759-280.8-280.799c-3.547-8.563-3.547-17.994,0-26.558    c3.547-8.563,10.216-15.232,18.779-18.779s17.995-3.547,26.558,0s15.232,10.216,18.779,18.779    c22.701,54.807,55.481,103.865,97.429,145.813c41.948,41.948,91.006,74.727,145.813,97.429    C347.68,432.562,356.105,452.901,348.782,470.577z M437.625,167.329c-0.905-0.022-1.811-0.074-2.715-0.192    c-6.749-0.889-12.749-4.353-16.893-9.754c-4.145-5.401-5.938-12.094-5.05-18.843c1.835-13.934,14.66-23.776,28.599-21.944    c4.3,0.566,8.337,2.234,11.78,4.771L437.625,167.329z M459.993,101.923c-4.872-2.653-10.225-4.42-15.817-5.156    c-24.871-3.283-47.764,14.294-51.038,39.163c-1.586,12.046,1.614,23.989,9.011,33.629c7.125,9.285,17.325,15.351,28.831,17.201    l-19.876,58.119l-22.858-17.54c-4.381-3.36-10.66-2.536-14.021,1.846c-3.362,4.382-2.535,10.659,1.846,14.021l28.205,21.642    l-51.694,151.155c-4.336-3.77-9.329-6.924-14.922-9.241C231.68,362.863,149.14,280.323,105.243,174.345    c-1.526-3.686-3.422-7.108-5.609-10.26l26.779-9.548c0.935,8.068,4.032,15.764,9.105,22.375    c7.396,9.64,18.105,15.822,30.151,17.407c2.018,0.266,4.03,0.398,6.032,0.398c9.948,0,19.572-3.25,27.597-9.407    c9.641-7.398,15.822-18.105,17.409-30.153c1.423-10.815-1.101-21.527-6.768-30.401l124.307-44.322l4.711,11.374    c1.596,3.851,5.319,6.176,9.243,6.176c1.275,0,2.571-0.246,3.823-0.764c5.102-2.113,7.525-7.964,5.412-13.066l-4.326-10.445    l132.719-47.322L459.993,101.923z"/><path d="M108,268.276c-0.03-0.047-0.113-0.174-0.145-0.22c-3.062-4.593-9.259-5.826-13.854-2.767    c-4.587,3.054-5.831,9.253-2.795,13.848c1.915,2.942,5.119,4.547,8.392,4.547c1.852,0,3.725-0.514,5.397-1.589    C109.641,279.108,110.986,272.921,108,268.276z"/><path d="M92.791,243.433c-9.745-17.086-18.505-34.968-26.036-53.147c-2.113-5.104-7.966-7.524-13.065-5.411    c-5.103,2.113-7.525,7.963-5.411,13.065c7.85,18.951,16.982,37.591,27.14,55.401c1.845,3.234,5.221,5.048,8.695,5.048    c1.68,0,3.383-0.424,4.945-1.315C93.856,254.337,95.528,248.23,92.791,243.433z"/><path d="M312.933,127.987c-1.982-0.262-3.995-0.394-5.983-0.394c-22.717,0-42.087,17.005-45.055,39.555    c-3.274,24.868,14.293,47.764,39.161,51.038c1.982,0.262,3.995,0.394,5.983,0.394c22.716,0,42.086-17.005,45.055-39.557    C355.367,154.156,337.8,131.261,312.933,127.987z M332.266,176.413c-1.664,12.637-12.509,22.166-25.227,22.166    c-1.118,0-2.253-0.074-3.372-0.222c-13.935-1.835-23.777-14.664-21.943-28.599c1.664-12.636,12.508-22.164,25.226-22.164    c1.118,0,2.253,0.074,3.372,0.222C324.256,149.652,334.1,162.48,332.266,176.413z"/><path d="M310.331,252.374c-1.983-0.262-3.995-0.394-5.983-0.394c-22.717,0-42.087,17.005-45.055,39.556    c-1.587,12.047,1.613,23.989,9.01,33.63c7.396,9.64,18.104,15.822,30.151,17.409c1.981,0.261,3.993,0.392,5.98,0.392    c22.717,0,42.088-17.005,45.057-39.557C352.766,278.544,335.198,255.65,310.331,252.374z M329.664,300.801    c-1.664,12.637-12.51,22.166-25.228,22.166c-1.117,0-2.252-0.075-3.37-0.222c-6.75-0.89-12.75-4.354-16.895-9.755    c-4.145-5.401-5.938-12.093-5.049-18.844c1.664-12.636,12.509-22.165,25.226-22.165c1.118,0,2.253,0.074,3.372,0.222    C321.653,274.038,331.497,286.867,329.664,300.801z"/><path d="M244.375,210.946l-30.736-4.047c-5.473-0.727-10.499,3.133-11.22,8.608c-0.722,5.476,3.133,10.499,8.608,11.22    l30.736,4.047c0.443,0.059,0.883,0.087,1.318,0.087c4.941,0,9.239-3.663,9.901-8.695    C253.705,216.691,249.851,211.667,244.375,210.946z"/><path d="M228.79,284.743l-2.714-20.624c-0.721-5.476-5.743-9.332-11.219-8.609c-5.476,0.721-9.33,5.743-8.609,11.219l2.715,20.624    c0.662,5.033,4.959,8.696,9.901,8.696c0.435,0,0.875-0.028,1.317-0.087C225.657,295.241,229.511,290.219,228.79,284.743z"/></g><g transform="matrix(0.1171875 0 0 0.1171875 22 302)" id="L1_44"><path d="m22.507812 256c-8.632812 0-15.523437 7.273438-14.976562 15.890625 5.027344 79.683594 47.617188 149.167969 110.253906 190.964844 7.175782 4.785156 16.914063 2.425781 21.226563-5.039063l116.519531-201.816406zm0 0" fill="#ffa000"/><path d="m372.0625 457.839844-116.53125-201.839844-116.535156 201.839844c-4.304688 7.457031-1.496094 17.058594 6.214844 20.882812 33.238281 16.5 70.695312 25.777344 110.316406 25.777344 39.625 0 77.082031-9.277344 110.320312-25.777344 7.710938-3.824218 10.519532-13.425781 6.214844-20.882812zm0 0" fill="#ffa000"/><path d="m139.011719 54.183594c-4.3125-7.464844-14.050781-9.824219-21.226563-5.039063-62.636718 41.796875-105.226562 111.28125-110.253906 190.964844-.546875 8.617187 6.34375 15.890625 14.976562 15.890625h233.023438zm0 0" fill="#ffa000"/><path d="m365.847656 33.273438c-33.238281-16.496094-70.695312-25.773438-110.320312-25.773438-39.621094 0-77.078125 9.277344-110.316406 25.773438-7.710938 3.828124-10.519532 13.429687-6.214844 20.882812l116.535156 201.84375 116.53125-201.839844c4.304688-7.457031 1.496094-17.058594-6.214844-20.886718zm0 0" fill="#ffa000"/><path d="m503.53125 240.109375c-5.03125-79.683594-47.617188-149.167969-110.257812-190.964844-7.171876-4.785156-16.914063-2.425781-21.226563 5.039063l-116.515625 201.816406h101l-.003906 50.0625c0 10.234375 8.296875 18.53125 18.53125 18.53125h.476562c10.644532 0 19.195313-8.550781 19.195313-19.101562v-6.878907c0-6.574219 5.328125-11.898437 11.898437-11.898437 6.574219 0 11.902344 5.328125 11.902344 11.898437v53.457031c0 8.046876 6.523438 14.574219 14.570312 14.574219 8.046876 0 14.570313-6.527343 14.570313-14.574219v-96.070312h40.875c8.636719 0 15.527344-7.273438 14.984375-15.890625zm0 0" fill="#ffa000"/><path d="m48.242188 256c0 12.398438-2.890626 24.890625-.824219 36.695312 2.128906 12.140626 9.152343 22.894532 13.273437 34.21875 4.195313 11.527344 5.765625 24.265626 11.828125 34.746094 6.121094 10.574219 16.402344 18.28125 24.214844 27.582032 7.835937 9.328124 13.652344 20.78125 22.980469 28.617187 9.300781 7.8125 21.578125 11.566406 32.152344 17.6875l103.664062-179.546875zm0 0" fill="#ffe082"/><path d="m203.984375 256-90.105469 156.0625c11.4375 13.074219 24.0625 15.425781 37.988282 23.484375l103.664062-179.546875zm0 0" fill="#ffb300"/><path d="m151.867188 435.546875c10.441406 6.03125 19.839843 14.851563 31.378906 19.050781 11.324218 4.121094 24.136718 3.445313 36.277344 5.574219 11.804687 2.066406 23.609374 7.113281 36.007812 7.113281s24.199219-5.046875 36.003906-7.113281c12.140625-2.128906 24.953125-1.453125 36.277344-5.574219 11.527344-4.195312 20.894531-12.988281 31.371094-19.050781.003906 0 .003906 0 .007812-.003906l-103.660156-179.542969zm0 0" fill="#ffe082"/><path d="m255.53125 256-14.226562 24.640625 77.886718 134.90625c-.003906 0-.003906 0-.007812 0-10.476563 6.0625-19.84375 14.855469-31.371094 19.050781-11.324219 4.125-24.136719 3.445313-36.277344 5.574219-11.804687 2.066406-23.605468 7.113281-36.003906 7.113281s-24.203125-5.046875-36.007812-7.113281c-8.128907-1.425781-16.558594-1.597656-24.640626-2.789063 9.300782 5.890626 17.953126 13.425782 28.363282 17.214844 11.328125 4.125 24.136718 3.449219 36.277344 5.574219 11.808593 2.066406 23.609374 7.117187 36.007812 7.117187s24.199219-5.050781 36.003906-7.117187c12.144532-2.125 24.953125-1.449219 36.277344-5.574219 11.527344-4.195312 20.894531-12.984375 31.375-19.046875 0-.003906 0-.003906.003906-.003906zm0 0" fill="#ffb300"/><path d="m151.867188 76.453125c-10.574219 6.121094-22.851563 9.875-32.152344 17.6875-9.328125 7.835937-15.144532 19.289063-22.980469 28.621094-7.816406 9.300781-18.09375 17.003906-24.214844 27.582031-6.0625 10.476562-7.632812 23.21875-11.828125 34.742188-4.125 11.324218-11.144531 22.078124-13.273437 34.21875-2.066407 11.804687.824219 24.296874.824219 36.695312h207.289062zm0 0" fill="#ffe082"/><path d="m151.867188 76.453125c-7.066407 4.089844-14.894532 7.128906-22.085938 11.027344l68.425781 118.519531c7.699219 13.332031-1.921875 30-17.320312 30h-133.929688c.449219 6.613281 1.285157 13.320312 1.285157 20h207.289062zm0 0" fill="#ffb300"/><path d="m327.8125 57.402344c-11.324219-4.121094-24.136719-3.445313-36.277344-5.574219-11.804687-2.066406-23.609375-7.113281-36.007812-7.113281-12.398438 0-24.199219 5.046875-36.003906 7.113281-12.140626 2.128906-24.953126 1.453125-36.277344 5.574219-10.730469 3.90625-18.203125 10.945312-31.378906 19.050781l103.664062 179.546875 103.660156-179.546875c-10.441406-6.03125-19.839844-14.851563-31.378906-19.050781zm0 0" fill="#ffe082"/><path d="m327.8125 57.402344c-3.742188-1.363282-7.648438-2.195313-11.632812-2.78125.972656.617187 2.003906 1.25 3.011718 1.835937l-89.4375 154.902344 25.777344 44.640625 103.660156-179.546875c-10.441406-6.03125-19.839844-14.851563-31.378906-19.050781zm0 0" fill="#ffb300"/><path d="m447.671875 256h15.144531c0-12.398438 2.890625-24.890625.824219-36.695312-2.128906-12.140626-9.152344-22.894532-13.273437-34.21875-4.195313-11.527344-5.765626-24.265626-11.828126-34.746094-6.121093-10.574219-16.402343-18.28125-24.214843-27.582032-7.835938-9.328124-13.652344-20.78125-22.980469-28.617187-9.300781-7.8125-21.578125-11.566406-32.152344-17.6875l-103.660156 179.546875h101l-.003906 50.0625c0 10.234375 8.296875 18.53125 18.53125 18.53125h.476562c10.644532 0 19.195313-8.550781 19.195313-19.101562v-6.878907c0-6.574219 5.328125-11.898437 11.898437-11.898437 6.574219 0 11.898438 5.324218 11.898438 11.898437v53.457031c0 8.046876 6.527344 14.570313 14.574218 14.570313 8.046876 0 14.570313-6.523437 14.570313-14.570313zm0 0" fill="#ffe082"/><path d="m463.640625 219.304688c-2.128906-12.140626-9.152344-22.894532-13.273437-34.21875-4.195313-11.527344-5.765626-24.265626-11.828126-34.746094-6.121093-10.574219-16.402343-18.28125-24.214843-27.582032-7.835938-9.328124-13.652344-20.78125-22.980469-28.617187-9.300781-7.8125-21.578125-11.566406-32.152344-17.6875l-2.011718 3.484375c6.214843 7.105469 11.078124 15.597656 17.144531 22.820312 7.8125 9.300782 18.09375 17.007813 24.214843 27.582032 6.0625 10.480468 7.632813 23.21875 11.828126 34.746094 4.125 11.324218 11.144531 22.074218 13.273437 34.21875.019531.117187.039063.234374.058594.351562 3.175781 19.070312-11.839844 36.34375-31.171875 36.34375h-125.449219l-11.546875 20h152.140625v30.765625c6.082031.53125 10.859375 5.628906 10.859375 11.847656v53.457031c0 8.050782 6.523438 14.574219 14.570312 14.574219 8.046876 0 14.570313-6.527343 14.570313-14.574219v-96.070312h15.144531c0-12.398438 2.890625-24.890625.824219-36.695312zm0 0" fill="#ffb300"/><path d="m262.949219 400.128906c0 16.417969-13.3125 29.726563-29.730469 29.726563s-29.730469-13.308594-29.730469-29.726563c0-16.417968 13.3125-29.730468 29.730469-29.730468s29.730469 13.3125 29.730469 29.730468zm0 0" fill="#ef5350"/><path d="m170.257812 352.984375c0 16.417969-13.308593 29.730469-29.730468 29.730469-16.417969 0-29.726563-13.3125-29.726563-29.730469s13.308594-29.726563 29.726563-29.726563c16.421875 0 29.730468 13.308594 29.730468 29.726563zm0 0" fill="#ef5350"/><path d="m194.722656 199.855469c0 16.417969-13.3125 29.730469-29.730468 29.730469-16.417969 0-29.730469-13.3125-29.730469-29.730469s13.3125-29.730469 29.730469-29.730469c16.417968 0 29.730468 13.3125 29.730468 29.730469zm0 0" fill="#ef5350"/><path d="m257.140625 99.117188c0 16.417968-13.3125 29.730468-29.730469 29.730468-16.417968 0-29.726562-13.3125-29.726562-29.730468 0-16.417969 13.308594-29.730469 29.726562-29.730469 16.417969 0 29.730469 13.3125 29.730469 29.730469zm0 0" fill="#ef5350"/><g fill="#ffa000"><path d="m387.730469 135.914062c0 8.210938-6.65625 14.863282-14.863281 14.863282-8.210938 0-14.867188-6.652344-14.867188-14.863282 0-8.210937 6.65625-14.863281 14.867188-14.863281 8.207031 0 14.863281 6.652344 14.863281 14.863281zm0 0"/><path d="m339.894531 213.113281c0 8.210938-6.65625 14.867188-14.867187 14.867188-8.207032 0-14.863282-6.65625-14.863282-14.867188 0-8.210937 6.65625-14.863281 14.863282-14.863281 8.210937 0 14.867187 6.652344 14.867187 14.863281zm0 0"/><path d="m322.453125 91.320312c0 8.210938-6.65625 14.863282-14.863281 14.863282-8.210938 0-14.867188-6.652344-14.867188-14.863282 0-8.210937 6.65625-14.867187 14.867188-14.867187 8.207031 0 14.863281 6.65625 14.863281 14.867187zm0 0"/><path d="m270.394531 173.5625c0 8.210938-6.65625 14.867188-14.867187 14.867188-8.207032 0-14.863282-6.65625-14.863282-14.867188 0-8.207031 6.65625-14.863281 14.863282-14.863281 8.210937 0 14.867187 6.65625 14.867187 14.863281zm0 0"/><path d="m103.824219 219.113281c0 8.210938-6.65625 14.867188-14.863281 14.867188-8.210938 0-14.867188-6.65625-14.867188-14.867188 0-8.210937 6.65625-14.863281 14.867188-14.863281 8.207031 0 14.863281 6.652344 14.863281 14.863281zm0 0"/><path d="m189.195312 289.628906c0 8.207032-6.65625 14.863282-14.863281 14.863282-8.210937 0-14.867187-6.65625-14.867187-14.863282 0-8.210937 6.65625-14.867187 14.867187-14.867187 8.207031 0 14.863281 6.65625 14.863281 14.867187zm0 0"/><path d="m154.785156 124.675781c-2.300781-7.878906-10.558594-12.402343-18.4375-10.097656-7.878906 2.300781-12.398437 10.558594-10.097656 18.4375 2.304688 7.878906 10.558594 12.398437 18.4375 10.097656 7.878906-2.304687 12.402344-10.558593 10.097656-18.4375zm0 0"/><path d="m109.179688 300.59375c0 8.210938-6.65625 14.867188-14.867188 14.867188-8.207031 0-14.863281-6.65625-14.863281-14.867188s6.65625-14.863281 14.863281-14.863281c8.210938 0 14.867188 6.652343 14.867188 14.863281zm0 0"/><path d="m318.535156 414.992188c0 8.210937-6.652344 14.867187-14.863281 14.867187s-14.863281-6.65625-14.863281-14.867187c0-8.207032 6.652344-14.863282 14.863281-14.863282s14.863281 6.65625 14.863281 14.863282zm0 0"/><path d="m270.394531 330.324219c0 8.207031-6.65625 14.863281-14.867187 14.863281-8.207032 0-14.863282-6.65625-14.863282-14.863281 0-8.210938 6.65625-14.867188 14.863282-14.867188 8.210937 0 14.867187 6.65625 14.867187 14.867188zm0 0"/></g><path d="m427.859375 201.855469c0 16.417969-13.3125 29.730469-29.730469 29.730469-16.417968 0-29.726562-13.3125-29.726562-29.730469s13.308594-29.730469 29.726562-29.730469c16.417969 0 29.730469 13.3125 29.730469 29.730469zm0 0" fill="#ef5350"/><path d="m239.40625 371.046875c11.84375 21.980469-7.367188 48.457031-32.375 43.160156 5.019531 9.316407 14.863281 15.648438 26.1875 15.648438 16.421875 0 29.730469-13.308594 29.730469-29.726563 0-14.296875-10.09375-26.234375-23.542969-29.082031zm0 0" fill="#d32f2f"/><path d="m146.714844 323.90625c11.84375 21.976562-7.363282 48.453125-32.375 43.160156 5.023437 9.316406 14.863281 15.648438 26.191406 15.648438 16.417969 0 29.726562-13.3125 29.726562-29.730469 0-14.296875-10.09375-26.230469-23.542968-29.078125zm0 0" fill="#d32f2f"/><path d="m171.179688 170.773438c11.839843 21.980468-7.367188 48.457031-32.375 43.160156 5.019531 9.316406 14.863281 15.652344 26.1875 15.652344 16.417968 0 29.730468-13.3125 29.730468-29.730469 0-14.296875-10.09375-26.234375-23.542968-29.082031zm0 0" fill="#d32f2f"/><path d="m233.597656 70.035156c11.839844 21.980469-7.363281 48.457032-32.375 43.160156 5.019532 9.316407 14.863282 15.652344 26.1875 15.652344 16.417969 0 29.730469-13.3125 29.730469-29.730468 0-14.296876-10.09375-26.230469-23.542969-29.082032zm0 0" fill="#d32f2f"/><path d="m404.316406 172.777344c11.84375 21.976562-7.363281 48.457031-32.375 43.160156 5.019532 9.316406 14.863282 15.648438 26.1875 15.648438 16.421875 0 29.730469-13.3125 29.730469-29.730469 0-14.296875-10.09375-26.234375-23.542969-29.078125zm0 0" fill="#d32f2f"/><path d="m270.449219 400.128906c0-20.527344-16.703125-37.230468-37.230469-37.230468-20.53125 0-37.230469 16.703124-37.230469 37.230468s16.703125 37.226563 37.230469 37.226563 37.230469-16.699219 37.230469-37.226563zm-59.460938 0c0-12.257812 9.972657-22.230468 22.230469-22.230468s22.230469 9.972656 22.230469 22.230468c0 12.257813-9.972657 22.226563-22.230469 22.226563s-22.230469-9.96875-22.230469-22.226563zm0 0"/><path d="m140.527344 315.757812c-20.527344 0-37.226563 16.699219-37.226563 37.226563s16.699219 37.230469 37.226563 37.230469c20.53125 0 37.230468-16.703125 37.230468-37.230469s-16.699218-37.226563-37.230468-37.226563zm0 59.457032c-12.253906 0-22.226563-9.972656-22.226563-22.230469s9.972657-22.226563 22.226563-22.226563c12.257812 0 22.230468 9.96875 22.230468 22.226563s-9.972656 22.230469-22.230468 22.230469zm0 0"/><path d="m164.992188 162.625c-20.53125 0-37.230469 16.703125-37.230469 37.230469 0 20.527343 16.699219 37.230469 37.230469 37.230469 20.527343 0 37.226562-16.703126 37.226562-37.230469 0-20.527344-16.699219-37.230469-37.226562-37.230469zm0 59.460938c-12.257813 0-22.230469-9.972657-22.230469-22.230469 0-12.257813 9.972656-22.230469 22.230469-22.230469 12.253906 0 22.226562 9.972656 22.226562 22.230469 0 12.257812-9.96875 22.230469-22.226562 22.230469zm0 0"/><path d="m264.640625 99.117188c0-20.527344-16.703125-37.230469-37.230469-37.230469s-37.226562 16.703125-37.226562 37.230469c0 20.527343 16.699218 37.230468 37.226562 37.230468s37.230469-16.703125 37.230469-37.230468zm-59.460937 0c0-12.257813 9.972656-22.230469 22.230468-22.230469 12.257813 0 22.230469 9.972656 22.230469 22.230469 0 12.257812-9.972656 22.230468-22.230469 22.230468-12.257812 0-22.230468-9.972656-22.230468-22.230468zm0 0"/><path d="m395.230469 135.914062c0-12.332031-10.03125-22.363281-22.363281-22.363281-12.332032 0-22.367188 10.03125-22.367188 22.363281 0 12.332032 10.035156 22.363282 22.367188 22.363282 12.332031 0 22.363281-10.03125 22.363281-22.363282zm-29.730469 0c0-4.0625 3.304688-7.363281 7.367188-7.363281s7.363281 3.300781 7.363281 7.363281-3.300781 7.363282-7.363281 7.363282-7.367188-3.300782-7.367188-7.363282zm0 0"/><path d="m325.027344 190.75c-12.332032 0-22.363282 10.03125-22.363282 22.363281s10.03125 22.367188 22.363282 22.367188c12.332031 0 22.367187-10.035157 22.367187-22.367188s-10.035156-22.363281-22.367187-22.363281zm0 29.730469c-4.058594 0-7.363282-3.304688-7.363282-7.367188 0-4.058593 3.304688-7.363281 7.363282-7.363281 4.0625 0 7.367187 3.304688 7.367187 7.363281 0 4.0625-3.304687 7.367188-7.367187 7.367188zm0 0"/><path d="m307.589844 113.683594c12.332031 0 22.363281-10.03125 22.363281-22.363282 0-12.332031-10.03125-22.367187-22.363281-22.367187-12.332032 0-22.363282 10.035156-22.363282 22.367187 0 12.332032 10.03125 22.363282 22.363282 22.363282zm0-29.730469c4.058594 0 7.363281 3.304687 7.363281 7.367187s-3.304687 7.363282-7.363281 7.363282c-4.0625 0-7.363282-3.304688-7.363282-7.363282 0-4.0625 3.300782-7.367187 7.363282-7.367187zm0 0"/><path d="m233.164062 173.5625c0 12.332031 10.035157 22.367188 22.367188 22.367188s22.363281-10.035157 22.363281-22.367188-10.03125-22.363281-22.363281-22.363281c-12.335938 0-22.367188 10.03125-22.367188 22.363281zm29.730469 0c0 4.0625-3.304687 7.367188-7.367187 7.367188-4.058594 0-7.363282-3.304688-7.363282-7.367188 0-4.058594 3.304688-7.363281 7.363282-7.363281 4.0625 0 7.367187 3.304687 7.367187 7.363281zm0 0"/><path d="m88.960938 196.75c-12.332032 0-22.363282 10.03125-22.363282 22.363281s10.03125 22.367188 22.363282 22.367188c12.332031 0 22.363281-10.035157 22.363281-22.367188s-10.03125-22.363281-22.363281-22.363281zm0 29.730469c-4.0625 0-7.363282-3.304688-7.363282-7.367188 0-4.058593 3.300782-7.363281 7.363282-7.363281 4.058593 0 7.363281 3.304688 7.363281 7.363281 0 4.0625-3.304688 7.367188-7.363281 7.367188zm0 0"/><path d="m174.332031 311.992188c12.332031 0 22.363281-10.03125 22.363281-22.363282 0-12.332031-10.035156-22.367187-22.363281-22.367187-12.332031 0-22.367187 10.035156-22.367187 22.367187 0 12.332032 10.035156 22.363282 22.367187 22.363282zm0-29.730469c4.058594 0 7.363281 3.304687 7.363281 7.367187 0 4.058594-3.304687 7.363282-7.363281 7.363282-4.0625 0-7.367187-3.304688-7.367187-7.363282 0-4.0625 3.304687-7.367187 7.367187-7.367187zm0 0"/><path d="m140.5 151.222656c2.105469 0 4.226562-.300781 6.304688-.910156 11.835937-3.460938 18.652343-15.902344 15.191406-27.742188-1.675782-5.730468-5.484375-10.472656-10.722656-13.339843-5.242188-2.871094-11.285157-3.527344-17.019532-1.851563-11.835937 3.460938-18.652344 15.902344-15.191406 27.738282 1.675781 5.734374 5.484375 10.476562 10.722656 13.34375 3.339844 1.828124 7.007813 2.761718 10.714844 2.761718zm-2.035156-29.445312c.683594-.199219 1.382812-.300782 2.074218-.300782 1.222657 0 2.429688.308594 3.527344.910157 1.726563.945312 2.980469 2.503906 3.53125 4.394531 1.140625 3.898438-1.105468 7.996094-5 9.132812-1.890625.550782-3.878906.335938-5.605468-.609374-1.722657-.945313-2.976563-2.503907-3.53125-4.394532-1.140626-3.894531 1.105468-7.992187 5.003906-9.132812zm0 0"/><path d="m116.679688 300.59375c0-12.332031-10.035157-22.363281-22.367188-22.363281s-22.363281 10.03125-22.363281 22.363281 10.03125 22.367188 22.363281 22.367188c12.332031-.003907 22.367188-10.035157 22.367188-22.367188zm-22.367188 7.363281c-4.058594 0-7.363281-3.304687-7.363281-7.363281 0-4.0625 3.304687-7.367188 7.363281-7.367188 4.0625 0 7.367188 3.304688 7.367188 7.367188 0 4.058594-3.304688 7.363281-7.367188 7.363281zm0 0"/><path d="m303.671875 437.355469c12.332031 0 22.363281-10.03125 22.363281-22.363281 0-12.332032-10.03125-22.363282-22.363281-22.363282s-22.363281 10.03125-22.363281 22.363282c0 12.332031 10.03125 22.363281 22.363281 22.363281zm0-29.726563c4.0625 0 7.363281 3.304688 7.363281 7.363282 0 4.0625-3.300781 7.363281-7.363281 7.363281-4.058594 0-7.363281-3.300781-7.363281-7.363281 0-4.058594 3.304687-7.363282 7.363281-7.363282zm0 0"/><path d="m255.527344 352.6875c12.332031 0 22.367187-10.03125 22.367187-22.363281s-10.035156-22.363281-22.367187-22.363281c-12.332032 0-22.363282 10.03125-22.363282 22.363281s10.03125 22.363281 22.363282 22.363281zm0-29.730469c4.0625 0 7.367187 3.304688 7.367187 7.367188 0 4.058593-3.304687 7.363281-7.367187 7.363281-4.058594 0-7.363282-3.304688-7.363282-7.363281 0-4.0625 3.304688-7.367188 7.363282-7.367188zm0 0"/><path d="m398.128906 164.625c-20.527344 0-37.226562 16.703125-37.226562 37.230469 0 20.527343 16.699218 37.230469 37.226562 37.230469s37.230469-16.703126 37.230469-37.230469c0-20.527344-16.703125-37.230469-37.230469-37.230469zm0 59.460938c-12.257812 0-22.226562-9.972657-22.226562-22.230469 0-12.257813 9.96875-22.230469 22.226562-22.230469 12.257813 0 22.230469 9.972656 22.230469 22.230469 0 12.257812-9.972656 22.230469-22.230469 22.230469zm0 0"/><path d="m511.015625 239.636719c-5.050781-79.984375-47.402344-152.574219-113.582031-196.730469-4.96875-3.3125-11.128906-4.484375-16.984375-3.257812-1.851563-5.679688-5.925781-10.441407-11.269531-13.089844-35.503907-17.625-73.742188-26.558594-113.652344-26.558594-39.90625 0-78.144532 8.933594-113.652344 26.558594-5.339844 2.652344-9.414062 7.410156-11.265625 13.089844-5.855469-1.226563-12.019531-.054688-16.988281 3.257812-66.117188 44.117188-108.523438 116.679688-113.5781252 196.730469-.3749998 5.972656 1.6992192 11.902343 5.6914062 16.363281-3.996094 4.460938-6.066406 10.390625-5.6914062 16.363281 5.0507812 79.984375 47.4023432 152.574219 113.5820312 196.730469 4.789062 3.195312 10.890625 4.535156 16.984375 3.257812 1.851563 5.679688 5.925781 10.441407 11.269531 13.09375 35.503906 17.621094 73.742188 26.554688 113.648438 26.554688 39.910156 0 78.148437-8.933594 113.652344-26.558594 11.574218-5.742187 15.839843-20.160156 9.378906-31.351562l-110.039063-190.589844h80.507813v42.5625c0 13.800781 10.878906 26.03125 26.507812 26.03125 14.71875 0 26.695313-11.933594 26.695313-26.601562v-6.878907c0-2.425781 1.972656-4.398437 4.398437-4.398437 2.425782 0 4.398438 1.972656 4.398438 4.398437v53.457031c0 12.171876 9.902344 22.070313 22.074218 22.070313 12.167969 0 22.070313-9.898437 22.070313-22.070313v-88.570312h33.375c12.960937 0 23.28125-10.953125 22.46875-23.863281zm-386.476563 172.480469c-8.359374-7.023438-14.003906-18.105469-22.0625-27.699219-8.046874-9.578125-17.976562-17.03125-23.464843-26.515625-5.429688-9.378906-6.964844-21.714844-11.273438-33.554688-4.25-11.671875-11.023437-22.042968-12.929687-32.945312-1.480469-8.441406.003906-17.851563.660156-27.902344h187.070312l-93.554687 162.035156c-9-4.4375-17.808594-7.84375-24.445313-13.417968zm-69.730468-191.519532c1.90625-10.902344 8.679687-21.273437 12.929687-32.945312 4.3125-11.851563 5.84375-24.171875 11.273438-33.554688 5.484375-9.484375 15.421875-16.941406 23.464843-26.515625 8.066407-9.609375 13.699219-20.671875 22.0625-27.699219 6.636719-5.574218 15.449219-8.984374 24.449219-13.421874l39.464844 68.359374c2.070313 3.585938 6.660156 4.816407 10.246094 2.746094 3.585937-2.070312 4.816406-6.660156 2.746093-10.246094l-39.476562-68.375c8.289062-5.570312 15.613281-11.5 23.84375-14.496093 10.128906-3.6875 22.539062-3.050781 35.003906-5.230469 12.1875-2.136719 23.5625-7.003906 34.710938-7.003906 11.152344 0 22.527344 4.867187 34.714844 7.003906 12.464843 2.179688 24.878906 1.542969 35.003906 5.230469 8.226562 2.996093 15.546875 8.921875 23.84375 14.496093l-93.5625 162.054688-36.582032-63.367188c-2.074218-3.585937-6.660156-4.816406-10.246093-2.746093-3.585938 2.074219-4.816407 6.660156-2.746094 10.246093l36.585937 63.367188h-187.066406c-.660156-10.050781-2.144531-19.460938-.664062-27.902344zm93.738281-180.605468c33.414063-16.582032 69.410156-24.992188 106.980469-24.992188 37.574218 0 73.570312 8.410156 106.984375 24.992188 3.8125 1.890624 5.214843 6.679687 3.054687 10.417968l-8.957031 15.511719c-8.257813-5.621094-16.265625-11.9375-26.234375-15.566406-12.492188-4.546875-25.765625-3.847657-37.546875-5.914063-11.421875-1.996094-23.644531-7.226562-37.300781-7.226562-13.652344 0-25.878906 5.230468-37.296875 7.226562-11.777344 2.066406-25.054688 1.363282-37.550781 5.914063-9.964844 3.628906-17.953126 9.929687-26.230469 15.566406-.066407-.113281-8.953125-15.503906-8.953125-15.503906-.003906-.003907-.003906-.007813-.003906-.007813-2.15625-3.734375-.761719-8.523437 3.054687-10.417968zm-133.53125 200.585937c4.695313-74.421875 44.671875-143.652344 106.933594-185.195313 3.542969-2.363281 8.402343-1.199218 10.566406 2.550782l8.953125 15.507812c-9.015625 4.378906-18.507812 8.179688-26.578125 14.957032-10.285156 8.640624-16.304687 20.496093-23.902344 29.539062-7.574219 9.015625-18.214843 16.988281-24.960937 28.648438-6.6875 11.558593-8.3125 24.746093-12.382813 35.933593-3.996093 10.976563-11.269531 22.109375-13.613281 35.492188-1.800781 10.285156-.316406 20.429687.402344 30.488281h-17.925782c-4.328124 0-7.765624-3.632812-7.492187-7.921875zm106.933594 216.035156c-62.261719-41.539062-102.238281-110.769531-106.933594-185.195312-.273437-4.285157 3.164063-7.917969 7.496094-7.917969h17.921875c-.71875 10.074219-2.203125 20.203125-.402344 30.488281 2.34375 13.382813 9.617188 24.519531 13.613281 35.492188 4.070313 11.183593 5.699219 24.375 12.382813 35.933593 6.746094 11.65625 17.390625 19.632813 24.964844 28.652344 7.597656 9.042969 13.617187 20.898438 23.902343 29.535156 8.0625 6.777344 17.550781 10.574219 26.574219 14.957032l-8.953125 15.503906c-2.152344 3.734375-7.003906 4.929688-10.566406 2.550781zm240.5625 15.394531c-33.414063 16.582032-69.410157 24.992188-106.984375 24.992188-37.574219 0-73.566406-8.410156-106.980469-24.992188-3.8125-1.894531-5.214844-6.679687-3.054687-10.417968l8.957031-15.511719c8.261719 5.625 16.265625 11.9375 26.230469 15.566406 3.886718 1.417969 8.195312-.585937 9.613281-4.484375 1.417969-3.890625-.589844-8.195312-4.480469-9.609375-8.226562-2.996093-15.550781-8.921875-23.84375-14.5l93.558594-162.050781 93.5625 162.050781c-8.296875 5.578125-15.617188 11.503907-23.84375 14.5-10.128906 3.6875-22.539063 3.046875-35.003906 5.230469-12.1875 2.132812-23.5625 7.003906-34.714844 7.003906-11.890625 0-23.566406-5.433594-37.550782-7.457031-4.101562-.589844-7.902343 2.253906-8.496093 6.351563-.589844 4.101562 2.253906 7.90625 6.351562 8.496093 12.925781 1.867188 25.25 7.609375 39.695313 7.609375 13.65625 0 25.875-5.226562 37.300781-7.226562 11.773437-2.0625 25.050781-1.363282 37.550781-5.914063 9.960938-3.625 17.957032-9.929687 26.230469-15.566406l8.957031 15.511719c2.15625 3.734375.761719 8.523437-3.054687 10.417968zm85.160156-223.507812c-4.140625 0-7.5 3.359375-7.5 7.5v96.070312c0 3.898438-3.171875 7.070313-7.070313 7.070313-3.898437 0-7.070312-3.171875-7.070312-7.070313v-53.457031c0-10.699219-8.703125-19.398437-19.402344-19.398437-10.695312 0-19.398437 8.699218-19.398437 19.398437v6.878907c0 5.980468-4.664063 11.601562-12.171875 11.601562-6.097656 0-11.03125-4.933594-11.03125-11.03125l.003906-42.5625h56.714844c4.140625 0 7.5-3.359375 7.5-7.5s-3.359375-7.5-7.5-7.5h-152.226563l93.550781-162.035156c8.988282 4.429687 17.808594 7.839844 24.449219 13.417968 8.363281 7.023438 14 18.101563 22.0625 27.699219 8.046875 9.578125 17.976563 17.027344 23.464844 26.515625 5.429687 9.378906 6.960937 21.714844 11.273437 33.554688 4.25 11.671875 11.019532 22.042968 12.929688 32.945312 1.480469 8.441406-.003906 17.851563-.664062 27.902344zm40.875 0h-17.921875c.71875-10.074219 2.203125-20.203125.402344-30.488281-2.34375-13.382813-9.617188-24.519531-13.613282-35.492188-4.066406-11.179687-5.699218-24.378906-12.382812-35.933593-6.746094-11.660157-17.394531-19.640626-24.964844-28.652344-7.589844-9.039063-13.617187-20.898438-23.898437-29.535156-8.066407-6.773438-17.546875-10.570313-26.578125-14.957032l8.953125-15.507812c2.164062-3.75 7.027343-4.914063 10.566406-2.550782 62.261719 41.542969 102.238281 110.773438 106.933594 185.195313.273437 4.296875-3.171875 7.921875-7.496094 7.921875zm0 0"/></g><g transform="matrix(0.11718406528234482 0 0 0.11718406528234482 155 96)" id="L1_45"><g><path d="m165.517 43.515-155.248 429.456c-7.541 18.498 10.577 37.1 29.215 29.995l428.033-153.451-112.556-174.577z" fill="#ecb880"/><path d="m63.327 494.415-23.84 8.55c-18.64 7.11-36.76-11.5-29.22-29.99l155.25-429.46 21.09 14.63-146.34 404.83c-6.7 16.43 6.87 32.96 23.06 31.44z" fill="#e9a761"/><path d="m435.392 352.047c-2.89-2.896-5.38-6.288-7.336-10.134-57.027-112.152-146.328-201.637-258.25-258.781-19.634-10.025-27.441-34.102-17.437-53.777 10.004-19.676 34.031-27.498 53.667-17.474 62.809 32.069 119.93 73.655 169.775 123.603s91.346 107.186 123.349 170.124c10.004 19.675 2.198 43.752-17.437 53.777-15.797 8.066-34.439 4.579-46.331-7.338z" fill="#e9a761"/><path d="m472.447 362.755c-13.38 3.06-27.43-1.06-37.06-10.71-2.89-2.89-5.38-6.29-7.33-10.13-57.03-112.15-146.33-201.64-258.25-258.78-19.64-10.03-27.44-34.1-17.44-53.78 1.06-2.09 2.28-4.04 3.64-5.85.01 14.55 7.97 28.56 21.8 35.63 111.92 57.14 223.22 160.63 280.25 272.78 1.23 2.42 8.47 18.52 14.39 30.84z" fill="#e69642"/><circle cx="243" cy="341" r="54" fill="#dc4955"/><path d="m290.377 368.375c-9.32 16.22-26.82 27.14-46.86 27.14-29.82 0-54-24.18-54-54 0-20.04 10.92-37.54 27.14-46.86-4.54 7.91-7.14 17.08-7.14 26.86 0 29.82 24.18 54 54 54 9.78 0 18.95-2.6 26.86-7.14z" fill="#d82f3c"/><path d="m124.517 395.515c0 29.82-24.18 54-54 54-18.03 0-33.99-8.83-43.8-22.41l30.05-83.82c4.39-1.16 9-1.77 13.75-1.77 29.82 0 54 24.18 54 54z" fill="#dc4955"/><path d="m201.517 172.515c0 29.82-24.18 54-54 54-7.2 0-14.06-1.41-20.34-3.96-8.15-3.32-15.3-8.57-20.9-15.18l31.83-88.04c3.05-.54 6.2-.82 9.41-.82 5.7 0 11.19.88 16.35 2.53 21.83 6.92 37.65 27.35 37.65 51.47z" fill="#dc4955"/><path d="m83.597 343.115-36.53 101.05c-8.08-3.89-15.03-9.74-20.26-16.94l30.38-84.04c4.26-1.1 8.73-1.67 13.33-1.67 4.51 0 8.89.55 13.08 1.6z" fill="#d82f3c"/><path d="m163.867 121.045-36.69 101.51c-8.15-3.32-15.3-8.57-20.9-15.18l31.83-88.04c3.05-.54 6.2-.82 9.41-.82 5.7 0 11.19.88 16.35 2.53z" fill="#d82f3c"/><path d="m229.38 206.001c4.532-13.046 18.953-20.402 26.103-23.332 2.376-.974 5.087-.001 6.308 2.258 3.722 6.886 10.41 22.013 5.864 35.101-4.532 13.046-18.953 20.402-26.103 23.332-2.376.974-5.087.001-6.308-2.258-3.722-6.886-10.41-22.013-5.864-35.101z" fill="#b7e546"/><path d="m269.127 212.305c-.14 2.6-.6 5.2-1.47 7.72-4.532 13.046-18.954 20.404-26.103 23.335-2.376.974-5.086.001-6.308-2.257-3.724-6.885-10.416-22.01-5.87-35.098.65-1.88 1.51-3.64 2.53-5.28-.67 12.101 5.502 24.25 8.261 29.025.731 1.266 2.267 1.813 3.635 1.299 5.387-2.024 18.683-7.912 25.325-18.744z" fill="#abd641"/><path d="m316.052 298.058c-8.495-10.725-6.991-26.683-5.638-34.243.452-2.528 2.729-4.293 5.29-4.11 7.76.556 23.95 3.021 32.473 13.781 8.495 10.725 6.991 26.683 5.638 34.243-.452 2.528-2.729 4.293-5.29 4.11-7.761-.557-23.951-3.022-32.473-13.781z" fill="#b7e546"/><path d="m354.747 299.995c-.183 2.832-.48 5.127-.93 7.75-.46 2.52-2.74 4.28-5.29 4.09-10.196-.815-20.954-3.363-28.95-10.12-10.779-9.171-11.419-24.975-9.16-37.9.15-.82.49-1.56.98-2.18-.24 7.77.98 17.26 6.65 24.42 10.98 13.86 34.66 13.96 36.7 13.94z" fill="#abd641"/><path d="m120.661 307.086c-5.211-13.209 1.571-28.7 4.938-35.083.934-1.77 3.024-2.597 4.903-1.908 6.837 2.508 22.637 9.579 27.871 22.848 5.211 13.209-1.571 28.7-4.938 35.083-.934 1.77-3.024 2.597-4.903 1.908-6.837-2.508-22.637-9.579-27.871-22.848z" fill="#b7e546"/><path d="m157.407 318.905c-1.106 3.17-2.432 6.202-3.98 9.13-.93 1.75-2.99 2.57-4.85 1.92-11.115-4.208-23.175-11.244-27.92-22.87-1.5-3.8-2.01-7.79-1.88-11.69.276-8.232 3.137-16.335 6.87-23.48.38-.67.93-1.2 1.56-1.55-2.37 7.26-3.81 16.44-.55 24.72 6.29 15.93 27.8 22.93 30.75 23.82z" fill="#abd641"/></g><g><path d="m505.845 302.209c-32.36-63.641-74.324-121.518-124.726-172.023-50.403-50.507-108.163-92.558-171.673-124.984-11.274-5.755-24.112-6.773-36.151-2.861-12.054 3.917-21.86 12.303-27.612 23.615-7.433 14.621-6.553 31.331.87 44.694l-16.615 46.34c-.003.009-.008.017-.011.025l-7.446 20.771-72.768 202.953c-.002.005-.004.009-.006.014l-8.098 22.588-38.349 106.958c-4.554 11.341-2.084 23.795 6.464 32.542 8.58 8.813 21.123 11.447 32.36 7.16l142.624-51.158c3.899-1.398 5.926-5.693 4.527-9.592s-5.692-5.923-9.592-4.527l-142.691 51.183c-5.883 2.298-12.083.978-16.5-3.551-4.413-4.514-5.623-10.702-3.238-16.554.041-.099.079-.199.115-.3l12.243-34.147c11.17 9.951 25.738 15.66 40.945 15.66 33.911 0 61.5-27.589 61.5-61.5s-27.589-61.5-61.5-61.5c-.828 0-1.653.022-2.478.055l40.79-113.764c10.851 8.806 24.419 13.709 38.688 13.709 33.911 0 61.5-27.589 61.5-61.5 0-33.746-27.323-61.22-61.006-61.488l9.669-26.968c23.163 14.764 48.839 26.45 71.093 42.565 3.43 2.319 8.094 1.421 10.415-2.01s1.421-8.094-2.009-10.414c-20.364-13.776-41.884-26.478-63.961-37.75-15.925-8.131-22.279-27.734-14.163-43.698 3.934-7.735 10.637-13.47 18.876-16.147 8.224-2.67 16.993-1.977 24.695 1.955 62.105 31.709 118.587 72.83 167.877 122.221 49.289 49.391 90.326 105.99 121.972 168.227 8.117 15.964 1.764 35.566-14.162 43.698-15.707 8.274-35.869 1.49-43.571-14.193-41.008-80.647-97.799-149.143-168.797-203.582-3.286-2.519-7.994-1.899-10.515 1.389-2.521 3.287-1.899 7.995 1.388 10.516 73.865 54.755 127.286 128.078 171.543 208.676l-215.77 77.395c-3.899 1.398-5.926 5.693-4.527 9.592 1.393 3.937 5.796 5.919 9.592 4.527l224.94-80.684c13.372 6.645 29.094 6.594 42.539-.276 23.279-11.887 32.57-40.532 20.71-63.857zm-435.328 46.806c25.64 0 46.5 20.859 46.5 46.5s-20.86 46.5-46.5 46.5c-13.603 0-26.548-6.023-35.341-16.281l20.429-56.985 6.825-19.035c2.651-.465 5.358-.699 8.087-.699zm77-223c25.64 0 46.5 20.859 46.5 46.5s-20.86 46.5-46.5 46.5c-12.6 0-24.491-5.041-33.215-13.958l20.032-55.884 8.209-22.896c1.64-.174 3.303-.262 4.974-.262z"/><path d="m189.736 332.525c-4.109-.134-7.586 3.158-7.697 7.298-.998 34.483 26.975 63.249 61.478 63.192 33.911 0 61.5-27.589 61.5-61.5s-27.589-61.5-61.5-61.5c-18.462 0-35.783 8.186-47.521 22.459-2.631 3.199-2.17 7.926 1.029 10.557 3.2 2.633 7.926 2.172 10.557-1.029 8.877-10.795 21.975-16.986 35.935-16.986 25.64 0 46.5 20.859 46.5 46.5s-20.86 46.5-46.5 46.5c-26.092.043-47.247-21.717-46.482-47.794.11-4.142-3.158-7.588-7.299-7.697z"/><path d="m237.454 252.366c.719 0 1.446-.104 2.16-.318 1.133-.342 27.842-8.591 35.125-29.558 7.25-20.87-8.254-44.489-8.918-45.484-1.831-2.745-5.242-3.968-8.4-3.022-1.133.342-27.842 8.591-35.125 29.558-7.25 20.87 8.254 44.489 8.918 45.484 1.417 2.124 3.779 3.34 6.24 3.34zm-.989-43.904c3.003-8.645 12.774-14.771 19.78-17.973 3.495 7.086 7.365 18.328 4.325 27.078-3.002 8.645-12.774 14.771-19.78 17.973-3.495-7.085-7.365-18.328-4.325-27.078z"/><path d="m330.454 270.294c3.891 1.426 8.197-.574 9.621-4.465 1.424-3.89-.575-8.197-4.465-9.621-11.945-4.373-23.922-4.165-24.429-4.157-3.299.071-6.164 2.29-7.058 5.466-.319 1.132-7.644 27.911 6.049 45.198 13.215 16.361 38.058 16.739 42.875 16.777 3.299-.07 6.164-2.29 7.058-5.466.131-.466 3.197-11.549 1.969-23.832-.412-4.121-4.09-7.132-8.209-6.717-4.122.412-7.129 4.088-6.717 8.209.462 4.621.113 9.11-.361 12.483-7.781-.856-19.18-3.604-24.856-10.769-5.606-7.079-5.55-18.448-4.511-26.008 3.597.388 8.381 1.199 13.034 2.902z"/><path d="m129.312 261.802c-3.179-.89-6.563.404-8.34 3.185-.63.987-15.352 24.409-7.288 44.852 8.027 20.349 34.898 28.071 36.038 28.39 3.121.888 6.565-.388 8.34-3.185.63-.987 15.352-24.409 7.288-44.852-8.027-20.349-34.898-28.071-36.038-28.39zm18.892 59.924c-6.568-2.791-17.049-8.477-20.566-17.392-3.29-8.341.028-19.129 3.193-26.03 6.568 2.791 17.049 8.477 20.566 17.392 3.29 8.341-.028 19.129-3.193 26.03z"/></g></g><g transform="matrix(0.1171875 0 0 0.1171875 -10 178)" id="L1_46"><path d="m217.834 0h76.331v361.684h-76.331z" fill="#fed841"/><path d="m256 0h38.166v361.684h-38.166z" fill="#fdb118"/><path d="m141.503 47.253h76.331v361.684h-76.331z" fill="#fed841"/><path d="m179.669 47.253h38.166v361.684h-38.166z" fill="#fdb118"/><path d="m294.166 47.253h76.331v361.684h-76.331z" fill="#fed841"/><path d="m332.331 47.253h38.166v361.684h-38.166z" fill="#fdb118"/><path d="m370.497 107.591h76.331v180.842h-76.331z" fill="#fed841"/><path d="m408.663 107.591h38.166v180.842h-38.166z" fill="#fdb118"/><path d="m65.172 107.591h76.331v180.842h-76.331z" fill="#fed841"/><path d="m103.337 107.591h38.166v180.842h-38.166z" fill="#fdb118"/><path d="m416.526 512h-321.052l-49.973-333.128h119.325l1.124 13.78c3.584 43.934 40.921 78.348 85 78.348h10.1c44.079 0 81.416-34.415 85-78.348l1.124-13.78h119.325z" fill="#ff1f2e"/><path d="m466.499 178.872h-119.325l-1.124 13.78c-3.584 43.933-40.921 78.348-85 78.348h-5.05v241h160.526z" fill="#bf0030"/><path d="m347.174 178.872-1.124 13.78c-3.584 43.933-40.921 78.348-85 78.348h-10.1c-44.079 0-81.416-34.415-85-78.348l-1.111-13.618 10.572 332.966h161.178l10.592-333.128z" fill="#ff4d55"/><path d="m347.182 178.872h-.008l-1.124 13.78c-3.584 43.933-40.921 78.348-85 78.348h-5.05v241h80.589z" fill="#ff1f2e"/><path d="m256 445.485c-59.493 0-104.357-25.733-104.357-59.858s44.864-59.858 104.357-59.858 104.357 25.733 104.357 59.858-44.864 59.858-104.357 59.858z" fill="#fef7d5"/><path d="m256 325.769v119.716c59.493 0 104.357-25.733 104.357-59.858s-44.864-59.858-104.357-59.858z" fill="#ffdea8"/></g><g transform="matrix(0.1171875 0 0 0.1171875 220 38)" id="L1_48"><g><g><path d="m386.329 0h-34.277v30h34.277c8.262 0 14.983 6.742 14.983 15.03l.186 30.477 13.909 8.771 12.199-27.798-12.199-45.766c-7.847-6.675-17.998-10.714-29.078-10.714z" fill="#4caf50"/><path d="m431.312 45.03c0-13.738-6.184-26.051-15.904-34.317v73.565l15.917-8.798z" fill="#4caf50"/></g><g><path d="m336.71 172.527-8.512 49.217 35.703 155.374c7.549 34.823 9.05 70.682 4.442 106.013l-3.768 28.869c18.13 0 35.39-4.133 50.833-11.55l50.283-204.162-50.283-166.298z" fill="#d83131"/><path d="m481.347 169.545-64.635-40.26-1.304.705v370.46c9.764-4.69 18.804-10.688 26.87-17.796 20.824-18.338 35.176-44.018 38.914-73.374l24.034-187.889z" fill="#d83131"/></g><g><path d="m319.594 184.28 8.605 37.464 38.054-25.949 49.155 43.879 44.909-93.009-44.909-72.37c-57.178.571-103.188 53.076-95.814 109.985z" fill="#4caf50"/><path d="m416.349 74.28c-.315 0-.628.01-.942.013v165.379l51.028-43.879 38.789 25.597 6.607-51.671c3.293-51.804-42.113-95.439-95.482-95.439z" fill="#4caf50"/></g></g><g><g><path d="m125.671 512h34.277v-30h-34.277c-8.262 0-14.983-6.742-14.983-15.03l-.186-30.477-13.909-8.771-12.2 27.798 12.199 45.767c7.848 6.674 17.999 10.713 29.079 10.713z" fill="#4caf50"/><path d="m80.688 466.97c0 13.738 6.184 26.051 15.904 34.317v-73.565l-15.917 8.798z" fill="#4caf50"/></g><g><path d="m175.29 339.473 8.512-49.217-35.703-155.374c-7.549-34.823-9.05-70.682-4.442-106.013l3.768-28.869c-18.13 0-35.39 4.133-50.833 11.55l-50.282 204.162 50.282 166.298z" fill="#d83131"/><path d="m30.653 342.455 64.635 40.26 1.304-.705v-370.46c-9.764 4.69-18.804 10.688-26.87 17.796-20.823 18.338-35.175 44.018-38.913 73.374l-24.034 187.889z" fill="#d83131"/></g><g><path d="m192.406 327.72-8.605-37.464-38.054 25.949-49.155-43.879-44.909 93.009 44.909 72.37c57.178-.571 103.188-53.076 95.814-109.985z" fill="#4caf50"/><path d="m95.651 437.72c.315 0 .628-.01.942-.013v-165.38l-51.028 43.879-38.79-25.597-6.607 51.671c-3.292 51.805 42.114 95.44 95.483 95.44z" fill="#4caf50"/></g></g></g></defs><g fi:class="KUsePattern"><pattern id="pattern_L1_32" width="350" height="350" patternUnits="userSpaceOnUse"><use xlink:href="#L1_32" x="-350" y="-350"/><use xlink:href="#L1_32" x="0" y="-350"/><use xlink:href="#L1_32" x="350" y="-350"/><use xlink:href="#L1_32" x="-350" y="0"/><use xlink:href="#L1_32" x="0" y="0"/><use xlink:href="#L1_32" x="350" y="0"/><use xlink:href="#L1_32" x="-350" y="350"/><use xlink:href="#L1_32" x="0" y="350"/><use xlink:href="#L1_32" x="350" y="350"/></pattern><rect x="0" y="0" width="100%" height="100%" fill="url(#pattern_L1_32)"/></g><g fi:class="KUsePattern" opacity="0.55"><pattern id="pattern_L1_36" width="350" height="350" patternUnits="userSpaceOnUse"><use xlink:href="#L1_36" x="-350" y="-350"/><use xlink:href="#L1_36" x="0" y="-350"/><use xlink:href="#L1_36" x="350" y="-350"/><use xlink:href="#L1_36" x="-350" y="0"/><use xlink:href="#L1_36" x="0" y="0"/><use xlink:href="#L1_36" x="350" y="0"/><use xlink:href="#L1_36" x="-350" y="350"/><use xlink:href="#L1_36" x="0" y="350"/><use xlink:href="#L1_36" x="350" y="350"/></pattern><rect x="0" y="0" width="100%" height="100%" fill="url(#pattern_L1_36)"/></g><g fi:class="KUsePattern" opacity="0.5"><pattern id="pattern_L1_37" width="350" height="350" patternUnits="userSpaceOnUse"><use xlink:href="#L1_37" x="-350" y="-350"/><use xlink:href="#L1_37" x="0" y="-350"/><use xlink:href="#L1_37" x="350" y="-350"/><use xlink:href="#L1_37" x="-350" y="0"/><use xlink:href="#L1_37" x="0" y="0"/><use xlink:href="#L1_37" x="350" y="0"/><use xlink:href="#L1_37" x="-350" y="350"/><use xlink:href="#L1_37" x="0" y="350"/><use xlink:href="#L1_37" x="350" y="350"/></pattern><rect x="0" y="0" width="100%" height="100%" fill="url(#pattern_L1_37)"/></g><g fi:class="KUsePattern" opacity="0.48"><pattern id="pattern_L1_38" width="350" height="350" patternUnits="userSpaceOnUse"><use xlink:href="#L1_38" x="-350" y="-350"/><use xlink:href="#L1_38" x="0" y="-350"/><use xlink:href="#L1_38" x="350" y="-350"/><use xlink:href="#L1_38" x="-350" y="0"/><use xlink:href="#L1_38" x="0" y="0"/><use xlink:href="#L1_38" x="350" y="0"/><use xlink:href="#L1_38" x="-350" y="350"/><use xlink:href="#L1_38" x="0" y="350"/><use xlink:href="#L1_38" x="350" y="350"/></pattern><rect x="0" y="0" width="100%" height="100%" fill="url(#pattern_L1_38)"/></g><g fi:class="KUsePattern" opacity="0.49"><pattern id="pattern_L1_41" width="350" height="350" patternUnits="userSpaceOnUse"><use xlink:href="#L1_41" x="-350" y="-350"/><use xlink:href="#L1_41" x="0" y="-350"/><use xlink:href="#L1_41" x="350" y="-350"/><use xlink:href="#L1_41" x="-350" y="0"/><use xlink:href="#L1_41" x="0" y="0"/><use xlink:href="#L1_41" x="350" y="0"/><use xlink:href="#L1_41" x="-350" y="350"/><use xlink:href="#L1_41" x="0" y="350"/><use xlink:href="#L1_41" x="350" y="350"/></pattern><rect x="0" y="0" width="100%" height="100%" fill="url(#pattern_L1_41)"/></g><g fi:class="KUsePattern"><pattern id="pattern_L1_42" width="350" height="350" patternUnits="userSpaceOnUse"><use xlink:href="#L1_42" x="-350" y="-350"/><use xlink:href="#L1_42" x="0" y="-350"/><use xlink:href="#L1_42" x="350" y="-350"/><use xlink:href="#L1_42" x="-350" y="0"/><use xlink:href="#L1_42" x="0" y="0"/><use xlink:href="#L1_42" x="350" y="0"/><use xlink:href="#L1_42" x="-350" y="350"/><use xlink:href="#L1_42" x="0" y="350"/><use xlink:href="#L1_42" x="350" y="350"/></pattern><rect x="0" y="0" width="100%" height="100%" fill="url(#pattern_L1_42)"/></g><g fi:class="KUsePattern" opacity="0.59"><pattern id="pattern_L1_43" width="350" height="350" patternUnits="userSpaceOnUse"><use xlink:href="#L1_43" x="-350" y="-350"/><use xlink:href="#L1_43" x="0" y="-350"/><use xlink:href="#L1_43" x="350" y="-350"/><use xlink:href="#L1_43" x="-350" y="0"/><use xlink:href="#L1_43" x="0" y="0"/><use xlink:href="#L1_43" x="350" y="0"/><use xlink:href="#L1_43" x="-350" y="350"/><use xlink:href="#L1_43" x="0" y="350"/><use xlink:href="#L1_43" x="350" y="350"/></pattern><rect x="0" y="0" width="100%" height="100%" fill="url(#pattern_L1_43)"/></g><g fi:class="KUsePattern" opacity="0.46"><pattern id="pattern_L1_44" width="350" height="350" patternUnits="userSpaceOnUse"><use xlink:href="#L1_44" x="-350" y="-350"/><use xlink:href="#L1_44" x="0" y="-350"/><use xlink:href="#L1_44" x="350" y="-350"/><use xlink:href="#L1_44" x="-350" y="0"/><use xlink:href="#L1_44" x="0" y="0"/><use xlink:href="#L1_44" x="350" y="0"/><use xlink:href="#L1_44" x="-350" y="350"/><use xlink:href="#L1_44" x="0" y="350"/><use xlink:href="#L1_44" x="350" y="350"/></pattern><rect x="0" y="0" width="100%" height="100%" fill="url(#pattern_L1_44)"/></g><g fi:class="KUsePattern" opacity="0.51"><pattern id="pattern_L1_48" width="350" height="350" patternUnits="userSpaceOnUse"><use xlink:href="#L1_48" x="-350" y="-350"/><use xlink:href="#L1_48" x="0" y="-350"/><use xlink:href="#L1_48" x="350" y="-350"/><use xlink:href="#L1_48" x="-350" y="0"/><use xlink:href="#L1_48" x="0" y="0"/><use xlink:href="#L1_48" x="350" y="0"/><use xlink:href="#L1_48" x="-350" y="350"/><use xlink:href="#L1_48" x="0" y="350"/><use xlink:href="#L1_48" x="350" y="350"/></pattern><rect x="0" y="0" width="100%" height="100%" fill="url(#pattern_L1_48)"/></g><g fi:class="KUsePattern" opacity="0.36"><pattern id="pattern_L1_45" width="350" height="350" patternUnits="userSpaceOnUse"><use xlink:href="#L1_45" x="-350" y="-350"/><use xlink:href="#L1_45" x="0" y="-350"/><use xlink:href="#L1_45" x="350" y="-350"/><use xlink:href="#L1_45" x="-350" y="0"/><use xlink:href="#L1_45" x="0" y="0"/><use xlink:href="#L1_45" x="350" y="0"/><use xlink:href="#L1_45" x="-350" y="350"/><use xlink:href="#L1_45" x="0" y="350"/><use xlink:href="#L1_45" x="350" y="350"/></pattern><rect x="0" y="0" width="100%" height="100%" fill="url(#pattern_L1_45)"/></g><g fi:class="KUsePattern" opacity="0.55"><pattern id="pattern_L1_46" width="350" height="350" patternUnits="userSpaceOnUse"><use xlink:href="#L1_46" x="-350" y="-350"/><use xlink:href="#L1_46" x="0" y="-350"/><use xlink:href="#L1_46" x="350" y="-350"/><use xlink:href="#L1_46" x="-350" y="0"/><use xlink:href="#L1_46" x="0" y="0"/><use xlink:href="#L1_46" x="350" y="0"/><use xlink:href="#L1_46" x="-350" y="350"/><use xlink:href="#L1_46" x="0" y="350"/><use xlink:href="#L1_46" x="350" y="350"/></pattern><rect x="0" y="0" width="100%" height="100%" fill="url(#pattern_L1_46)"/></g></svg>